SplineFontDB: 3.0
FontName: Monda-Regular
FullName: Monda Regular
FamilyName: Monda
Weight: Normal
Copyright: 
Version: 2
ItalicAngle: 0
UnderlinePosition: 0
UnderlineWidth: 0
Ascent: 1638
Descent: 410
UFOAscent: 1506
UFODescent: -695
LayerCount: 2
Layer: 0 0 "Back"  1
Layer: 1 0 "Fore"  0
OS2Version: 0
OS2_WeightWidthSlopeOnly: 0
OS2_UseTypoMetrics: 0
CreationTime: 1391040905
ModificationTime: 1391042113
PfmFamily: 0
TTFWeight: 400
TTFWidth: 5
LineGap: 0
VLineGap: 0
OS2TypoAscent: 0
OS2TypoAOffset: 1
OS2TypoDescent: 0
OS2TypoDOffset: 1
OS2TypoLinegap: 0
OS2WinAscent: 0
OS2WinAOffset: 1
OS2WinDescent: 0
OS2WinDOffset: 1
HheadAscent: 0
HheadAOffset: 1
HheadDescent: 0
HheadDOffset: 1
OS2Vendor: 'NeWT'
Lookup: 4 0 1 "'liga' Standard Ligatures lookup 0"  {"'liga' Standard Ligatures lookup 0 subtable"  } ['liga' ('latn' <'dflt' > 'grek' <'dflt' > 'DFLT' <'dflt' > ) ]
Lookup: 6 0 0 "'locl' Localized Forms in Latin lookup 1"  {"'locl' Localized Forms in Latin lookup 1 contextual 0"  "'locl' Localized Forms in Latin lookup 1 contextual 1"  } ['locl' ('latn' <'CAT ' 'dflt' > ) ]
Lookup: 4 0 0 "Ligature Substitution lookup 2"  {"Ligature Substitution lookup 2 subtable"  } []
Lookup: 4 0 0 "Ligature Substitution lookup 3"  {"Ligature Substitution lookup 3 subtable"  } []
Lookup: 1 0 0 "'locl' Localized Forms in Latin lookup 4"  {"'locl' Localized Forms in Latin lookup 4 subtable"  } ['locl' ('latn' <'ROM ' 'dflt' > ) ]
Lookup: 1 0 0 "'locl' Localized Forms in Latin lookup 5"  {"'locl' Localized Forms in Latin lookup 5 subtable"  } ['locl' ('latn' <'MOL ' 'dflt' > ) ]
Lookup: 1 0 0 "'locl' Localized Forms in Latin lookup 6"  {"'locl' Localized Forms in Latin lookup 6 subtable"  } ['locl' ('latn' <'KAZ ' 'dflt' > ) ]
Lookup: 1 0 0 "'locl' Localized Forms in Latin lookup 7"  {"'locl' Localized Forms in Latin lookup 7 subtable"  } ['locl' ('latn' <'TAT ' 'dflt' > ) ]

StartChar: A
Encoding: 65 65 0
Width: 1428
VWidth: 0
Flags: HW
PickledData: "(dp1
S'org.robofab.postScriptHintData'
p2
(dp3
s."
AnchorPoint: "top" 716 1446 basechar 0
AnchorPoint: "ogonek" 1285 0 basechar 0
LayerCount: 2
Fore
SplineSet
86 0 m 1
 625 1446 l 1
 802 1446 l 1
 1342 0 l 1
 1137 0 l 1
 1039 282 l 1
 394 282 l 1
 295 0 l 1
 86 0 l 1
442 425 m 1
 993 425 l 1
 719 1216 l 1
 442 425 l 1
EndSplineSet
Substitution2: "Single Substitution lookup 14 subtable" ordfeminine
EndChar

StartChar: AE
Encoding: 198 198 1
Width: 1686
VWidth: 0
Flags: HW
PickledData: "(dp1
S'org.robofab.postScriptHintData'
p2
(dp3
s."
AnchorPoint: "top" 1017 1446 basechar 0
LayerCount: 2
Fore
SplineSet
98 3 m 1
 492 1446 l 1
 1550 1446 l 1
 1550 1296 l 1
 1065 1296 l 1
 1065 814 l 1
 1489 814 l 1
 1489 664 l 1
 1065 664 l 1
 1065 150 l 1
 1559 150 l 1
 1559 0 l 1
 874 0 l 1
 874 282 l 1
 375 282 l 1
 302 0 l 1
 98 3 l 1
411 417 m 1
 874 417 l 1
 874 1296 l 1
 632 1296 l 1
 411 417 l 1
EndSplineSet
EndChar

StartChar: B
Encoding: 66 66 17
Width: 1420
VWidth: 0
Flags: HW
PickledData: "(dp1
S'org.robofab.postScriptHintData'
p2
(dp3
s."
AnchorPoint: "top" 696 1446 basechar 0
LayerCount: 2
Fore
SplineSet
218 0 m 1
 218 1446 l 1
 742 1446 l 2
 1143 1446 1222 1301 1222 1049 c 0
 1219 922 1174 819 1040 773 c 1
 1209 735 1292 595 1292 411 c 0
 1292 124 1138 0 786 0 c 2
 218 0 l 1
420 149 m 1
 771 149 l 2
 995 149 1094 197 1094 433 c 0
 1094 565 1041 696 820 696 c 2
 420 696 l 1
 420 149 l 1
420 833 m 1
 791 833 l 2
 973 833 1021 917 1021 1047 c 0
 1021 1256 955 1295 711 1295 c 2
 420 1295 l 1
 420 833 l 1
EndSplineSet
EndChar

StartChar: C
Encoding: 67 67 19
Width: 1456
VWidth: 0
Flags: HW
PickledData: "(dp1
S'org.robofab.postScriptHintData'
p2
(dp3
s."
AnchorPoint: "top" 765 1446 basechar 0
AnchorPoint: "bot" 765 0 basechar 0
LayerCount: 2
Fore
SplineSet
761 -22 m 0
 278 -22 182 185 182 486 c 2
 182 940 l 2
 182 1246 274 1468 759 1468 c 0
 1197 1468 1297 1308 1300 1010 c 0
 1300 1006 1300 1001 1300 997 c 1
 1109 980 l 1
 1109 989 1109 998 1109 1007 c 0
 1103 1269 1017 1306 759 1306 c 0
 505 1306 384 1234 384 977 c 2
 384 455 l 2
 384 199 509 140 765 140 c 0
 1016 140 1104 165 1109 424 c 0
 1109 432 1109 440 1109 448 c 1
 1300 448 l 1
 1300 445 1300 442 1300 438 c 0
 1298 147 1221 -22 761 -22 c 0
EndSplineSet
EndChar

StartChar: D
Encoding: 68 68 26
Width: 1522
VWidth: 0
Flags: HW
PickledData: "(dp1
S'org.robofab.postScriptHintData'
p2
(dp3
s."
AnchorPoint: "top" 716 1446 basechar 0
AnchorPoint: "mid" 357 762 basechar 0
LayerCount: 2
Fore
SplineSet
420 150 m 1
 774 150 l 2
 982 150 1139 196 1139 462 c 2
 1139 971 l 2
 1139 1238 980 1295 774 1295 c 2
 420 1295 l 1
 420 150 l 1
218 0 m 1
 218 1446 l 1
 792 1446 l 2
 1193 1446 1340 1235 1340 959 c 2
 1340 482 l 2
 1340 169 1161 0 794 0 c 2
 218 0 l 1
EndSplineSet
EndChar

StartChar: Delta
Encoding: 916 916 30
Width: 1428
VWidth: 0
Flags: HW
PickledData: "(dp1
S'org.robofab.postScriptHintData'
p2
(dp3
s."
LayerCount: 2
Fore
SplineSet
161 0 m 1
 625 1446 l 1
 802 1446 l 1
 1260 0 l 1
 161 0 l 1
392 143 m 1
 1036 143 l 1
 719 1196 l 1
 392 143 l 1
EndSplineSet
EndChar

StartChar: E
Encoding: 69 69 33
Width: 1255
VWidth: 0
Flags: HW
PickledData: "(dp1
S'org.robofab.postScriptHintData'
p2
(dp3
s."
AnchorPoint: "top" 676 1446 basechar 0
AnchorPoint: "ogonek" 844 0 basechar 0
AnchorPoint: "bot" 628 0 basechar 0
LayerCount: 2
Fore
SplineSet
218 0 m 1
 218 1446 l 1
 1121 1446 l 1
 1121 1296 l 1
 419 1296 l 1
 419 820 l 1
 1039 820 l 1
 1039 670 l 1
 419 670 l 1
 419 150 l 1
 1133 150 l 1
 1133 0 l 1
 218 0 l 1
EndSplineSet
EndChar

StartChar: Eng
Encoding: 330 330 44
Width: 1582
VWidth: 0
Flags: HW
PickledData: "(dp1
S'org.robofab.postScriptHintData'
p2
(dp3
s."
LayerCount: 2
Fore
SplineSet
821 -373 m 1
 793 -232 l 1
 1037 -210 1182 -197 1182 115 c 2
 1182 190 l 1
 389 1104 l 1
 389 0 l 1
 212 0 l 1
 212 1446 l 1
 365 1446 l 1
 1193 470 l 1
 1193 1446 l 1
 1370 1446 l 1
 1370 122 l 2
 1370 -259 1152 -373 821 -373 c 1
EndSplineSet
EndChar

StartChar: Euro
Encoding: 8364 8364 48
Width: 1460
VWidth: 0
Flags: HW
PickledData: "(dp1
S'org.robofab.postScriptHintData'
p2
(dp3
s."
LayerCount: 2
Fore
SplineSet
743 819 m 1
 743 953 l 1
 384 953 l 1
 384 977 l 2
 384 1234 505 1306 759 1306 c 0
 1017 1306 1103 1269 1109 1007 c 0
 1109 998 1109 989 1109 980 c 1
 1300 997 l 1
 1300 1001 1300 1006 1300 1010 c 0
 1297 1308 1197 1468 759 1468 c 0
 281 1468 185 1252 182 953 c 1
 1 953 l 1
 1 819 l 1
 182 819 l 1
 182 639 l 1
 1 639 l 1
 1 505 l 1
 182 505 l 1
 182 486 l 2
 182 185 278 -22 761 -22 c 0
 1221 -22 1298 147 1300 438 c 0
 1300 442 1300 445 1300 448 c 1
 1109 448 l 1
 1109 440 1109 432 1109 424 c 0
 1104 165 1016 140 765 140 c 0
 509 140 384 199 384 455 c 2
 384 505 l 1
 743 505 l 1
 743 639 l 1
 384 639 l 1
 384 819 l 1
 743 819 l 1
EndSplineSet
EndChar

StartChar: F
Encoding: 70 70 49
Width: 1159
VWidth: 0
Flags: HW
PickledData: "(dp1
S'org.robofab.postScriptHintData'
p2
(dp3
s."
AnchorPoint: "top" 656 1446 basechar 0
LayerCount: 2
Fore
SplineSet
218 0 m 1
 218 1446 l 1
 1039 1446 l 1
 1039 1296 l 1
 419 1296 l 1
 419 814 l 1
 1003 814 l 1
 1003 664 l 1
 419 664 l 1
 419 0 l 1
 218 0 l 1
EndSplineSet
EndChar

StartChar: G
Encoding: 71 71 51
Width: 1556
VWidth: 0
Flags: HW
PickledData: "(dp1
S'org.robofab.postScriptHintData'
p2
(dp3
s."
AnchorPoint: "top" 776 1446 basechar 0
AnchorPoint: "bot" 778 0 basechar 0
LayerCount: 2
Fore
SplineSet
1160 1001 m 1
 1160 1269 1071 1306 788 1306 c 0
 534 1306 388 1234 388 977 c 2
 388 455 l 2
 388 199 532 140 788 140 c 0
 1046 140 1158 199 1158 455 c 2
 1158 588 l 1
 815 588 l 1
 815 735 l 1
 1360 735 l 1
 1360 0 l 1
 1250 0 l 1
 1225 246 l 1
 1201 89 1074 -22 788 -22 c 0
 305 -22 186 185 186 486 c 2
 186 940 l 2
 186 1246 303 1468 788 1468 c 0
 1249 1468 1338 1298 1344 1043 c 0
 1344 1034 1344 1025 1344 1016 c 1
 1160 1001 l 1
EndSplineSet
EndChar

StartChar: H
Encoding: 72 72 58
Width: 1528
VWidth: 0
Flags: HW
PickledData: "(dp1
S'org.robofab.postScriptHintData'
p2
(dp3
s."
AnchorPoint: "top" 754 1446 basechar 0
AnchorPoint: "center" 764 0 basechar 0
LayerCount: 2
Fore
SplineSet
212 0 m 1
 212 1446 l 1
 413 1446 l 1
 413 807 l 1
 1115 807 l 1
 1115 1446 l 1
 1316 1446 l 1
 1316 0 l 1
 1115 0 l 1
 1115 659 l 1
 413 659 l 1
 413 0 l 1
 212 0 l 1
EndSplineSet
EndChar

StartChar: Hbar
Encoding: 294 294 59
Width: 1536
VWidth: 0
Flags: HW
PickledData: "(dp1
S'org.robofab.postScriptHintData'
p2
(dp3
s."
LayerCount: 2
Fore
SplineSet
144 1060 m 1
 1392 1060 l 1
 1392 1184 l 1
 144 1184 l 1
 144 1060 l 1
EndSplineSet
Refer: 58 72 N 1 0 0 1 0 0 2
EndChar

StartChar: I
Encoding: 73 73 61
Width: 1132
VWidth: 0
Flags: HW
PickledData: "(dp1
S'org.robofab.postScriptHintData'
p2
(dp3
s."
AnchorPoint: "top" 568 1446 basechar 0
AnchorPoint: "ogonek" 641 0 basechar 0
LayerCount: 2
Fore
SplineSet
190 0 m 1
 190 150 l 1
 466 150 l 1
 466 1297 l 1
 190 1297 l 1
 190 1446 l 1
 942 1446 l 1
 942 1297 l 1
 667 1297 l 1
 667 150 l 1
 942 150 l 1
 942 0 l 1
 190 0 l 1
EndSplineSet
EndChar

StartChar: J
Encoding: 74 74 75
Width: 1206
VWidth: 0
Flags: HW
PickledData: "(dp1
S'org.robofab.postScriptHintData'
p2
(dp3
s."
AnchorPoint: "top" 645 1446 basechar 0
LayerCount: 2
Fore
SplineSet
522 -17 m 0
 354 -17 167 36 102 70 c 1
 157 225 l 1
 204 203 370 148 516 148 c 0
 707 148 787 248 787 435 c 2
 787 1281 l 1
 234 1281 l 1
 234 1446 l 1
 988 1446 l 1
 988 431 l 2
 988 157 847 -17 522 -17 c 0
EndSplineSet
EndChar

StartChar: K
Encoding: 75 75 77
Width: 1418
VWidth: 0
Flags: HW
PickledData: "(dp1
S'org.robofab.postScriptHintData'
p2
(dp3
s."
AnchorPoint: "top" 733 1446 basechar 0
AnchorPoint: "bot" 709 0 basechar 0
LayerCount: 2
Fore
SplineSet
218 0 m 1
 218 1446 l 1
 419 1446 l 1
 419 657 l 1
 641 927 875 1183 1103 1446 c 1
 1321 1446 l 1
 778 798 l 1
 1350 0 l 1
 1127 0 l 1
 637 690 l 1
 419 468 l 1
 419 0 l 1
 218 0 l 1
EndSplineSet
EndChar

StartChar: L
Encoding: 76 76 80
Width: 1145
VWidth: 0
Flags: HW
PickledData: "(dp1
S'org.robofab.postScriptHintData'
p2
(dp3
s."
AnchorPoint: "mid" 307 725 basechar 0
AnchorPoint: "top" 595 1446 basechar 0
AnchorPoint: "bot" 623 0 basechar 0
LayerCount: 2
Fore
SplineSet
218 0 m 1
 218 1446 l 1
 419 1446 l 1
 419 155 l 1
 1068 155 l 1
 1068 0 l 1
 218 0 l 1
EndSplineSet
EndChar

StartChar: Lslash
Encoding: 321 321 86
Width: 1145
VWidth: 0
Flags: HW
PickledData: "(dp1
S'org.robofab.postScriptHintData'
p2
(dp3
s."
LayerCount: 2
Fore
SplineSet
52 616 m 1
 656 917 l 1
 656 1041 l 1
 52 740 l 1
 52 616 l 1
EndSplineSet
Refer: 80 76 N 1 0 0 1 0 0 2
EndChar

StartChar: M
Encoding: 77 77 87
Width: 1778
VWidth: 0
Flags: HW
PickledData: "(dp1
S'org.robofab.postScriptHintData'
p2
(dp3
s."
AnchorPoint: "top" 886 1446 basechar 0
LayerCount: 2
Fore
SplineSet
218 0 m 1
 218 1446 l 1
 403 1446 l 1
 890 638 l 1
 1382 1446 l 1
 1560 1446 l 1
 1560 0 l 1
 1370 0 l 1
 1370 1121 l 1
 965 458 l 1
 816 458 l 1
 410 1117 l 1
 410 0 l 1
 218 0 l 1
EndSplineSet
EndChar

StartChar: N
Encoding: 78 78 89
Width: 1594
VWidth: 0
Flags: HW
PickledData: "(dp1
S'org.robofab.postScriptHintData'
p2
(dp3
s."
AnchorPoint: "top" 797 1446 basechar 0
AnchorPoint: "bot" 797 0 basechar 0
LayerCount: 2
Fore
SplineSet
218 0 m 1
 218 1446 l 1
 371 1446 l 1
 1199 290 l 1
 1199 1446 l 1
 1376 1446 l 1
 1376 0 l 1
 1197 0 l 1
 395 1104 l 1
 395 0 l 1
 218 0 l 1
EndSplineSet
EndChar

StartChar: O
Encoding: 79 79 95
Width: 1546
VWidth: 0
Flags: HW
PickledData: "(dp1
S'org.robofab.postScriptHintData'
p2
(dp3
s."
AnchorPoint: "top" 782 1446 basechar 0
AnchorPoint: "ogonek" 818 0 basechar 0
AnchorPoint: "bot" 782 0 basechar 0
LayerCount: 2
Fore
SplineSet
782 140 m 0
 1040 140 1159 199 1159 455 c 2
 1159 978 l 2
 1159 1235 1038 1306 782 1306 c 0
 528 1306 388 1235 388 978 c 2
 388 455 l 2
 388 199 526 140 782 140 c 0
782 -22 m 0
 299 -22 186 185 186 486 c 2
 186 941 l 2
 186 1247 297 1468 782 1468 c 0
 1249 1468 1360 1234 1360 928 c 2
 1360 500 l 2
 1360 203 1247 -22 782 -22 c 0
EndSplineSet
Substitution2: "Single Substitution lookup 15 subtable" ordmasculine
EndChar

StartChar: OE
Encoding: 338 338 96
Width: 1557
VWidth: 0
Flags: HW
PickledData: "(dp1
S'org.robofab.postScriptHintData'
p2
(dp3
s."
AnchorPoint: "top" 779 0 basechar 0
LayerCount: 2
Fore
SplineSet
775 0 m 2
 292 0 183 209 183 510 c 2
 183 918 l 2
 183 1224 290 1446 775 1446 c 2
 1390 1446 l 1
 1390 1296 l 1
 976 1296 l 1
 976 814 l 1
 1329 814 l 1
 1329 664 l 1
 976 664 l 1
 976 150 l 1
 1399 150 l 1
 1399 0 l 1
 775 0 l 2
765 150 m 2
 775 150 l 1
 775 1295 l 1
 764 1295 l 2
 517 1295 385 1208 385 955 c 2
 385 479 l 2
 385 226 516 150 765 150 c 2
EndSplineSet
EndChar

StartChar: Ohm
Encoding: 8486 8486 104
Width: 1586
VWidth: 0
Flags: HW
PickledData: "(dp1
S'org.robofab.postScriptHintData'
p2
(dp3
s."
LayerCount: 2
Fore
SplineSet
793 1468 m 0
 1151 1468 1400 1372 1400 716 c 0
 1400 365 1289 219 1134 141 c 1
 1379 141 l 1
 1379 0 l 1
 889 0 l 1
 889 141 l 1
 1118 225 1200 360 1200 736 c 0
 1200 1248 1053 1304 793 1304 c 0
 533 1304 386 1248 386 736 c 0
 386 360 468 225 697 141 c 1
 697 0 l 1
 207 0 l 1
 207 141 l 1
 452 141 l 1
 297 219 186 365 186 716 c 0
 186 1372 435 1468 793 1468 c 0
EndSplineSet
EndChar

StartChar: Oslash
Encoding: 216 216 110
Width: 1546
VWidth: 0
Flags: HW
PickledData: "(dp1
S'org.robofab.postScriptHintData'
p2
(dp3
s."
AnchorPoint: "top" 791 1446 basechar 0
LayerCount: 2
Fore
SplineSet
782 -22 m 0
 1247 -22 1360 203 1360 500 c 2
 1360 928 l 2
 1360 1154 1299 1341 1078 1423 c 1
 1158 1638 l 1
 1054 1676 l 1
 971 1452 l 1
 916 1462 853 1468 782 1468 c 0
 297 1468 186 1247 186 941 c 2
 186 486 l 2
 186 274 242 108 445 29 c 1
 376 -157 l 1
 479 -195 l 1
 551 -2 l 1
 617 -15 693 -22 782 -22 c 0
1021 1267 m 1
 1114 1223 1159 1135 1159 978 c 2
 1159 455 l 2
 1159 199 1040 140 782 140 c 0
 716 140 658 144 608 154 c 1
 1021 1267 l 1
914 1297 m 1
 505 191 l 1
 428 236 388 317 388 455 c 2
 388 978 l 2
 388 1235 528 1306 782 1306 c 0
 831 1306 875 1303 914 1297 c 1
EndSplineSet
EndChar

StartChar: P
Encoding: 80 80 113
Width: 1326
VWidth: 0
Flags: HW
PickledData: "(dp1
S'org.robofab.postScriptHintData'
p2
(dp3
s."
AnchorPoint: "top" 716 1446 basechar 0
LayerCount: 2
Fore
SplineSet
218 0 m 1
 218 1446 l 1
 796 1446 l 2
 1039 1446 1198 1320 1198 991 c 0
 1198 645 1039 529 793 529 c 2
 420 529 l 1
 420 0 l 1
 218 0 l 1
420 682 m 1
 797 682 l 2
 972 682 996 828 996 977 c 0
 996 1118 983 1293 802 1293 c 2
 420 1293 l 1
 420 682 l 1
EndSplineSet
EndChar

StartChar: Q
Encoding: 81 81 115
Width: 1542
VWidth: 0
Flags: HW
PickledData: "(dp1
S'org.robofab.postScriptHintData'
p2
(dp3
s."
LayerCount: 2
Fore
SplineSet
944 -384 m 1
 714 -21 l 1
 288 -2 186 200 186 486 c 2
 186 941 l 2
 186 1247 297 1468 782 1468 c 0
 1249 1468 1360 1234 1360 928 c 2
 1360 500 l 2
 1360 229 1266 18 895 -17 c 1
 1085 -308 l 1
 944 -384 l 1
782 140 m 0
 1040 140 1159 199 1159 455 c 2
 1159 978 l 2
 1159 1235 1038 1306 782 1306 c 0
 528 1306 388 1235 388 978 c 2
 388 455 l 2
 388 199 526 140 782 140 c 0
EndSplineSet
EndChar

StartChar: R
Encoding: 82 82 116
Width: 1464
VWidth: 0
Flags: HW
PickledData: "(dp1
S'org.robofab.postScriptHintData'
p2
(dp3
s."
AnchorPoint: "top" 716 1446 basechar 0
AnchorPoint: "bot" 732 0 basechar 0
LayerCount: 2
Fore
SplineSet
218 0 m 1
 218 1446 l 1
 863 1446 l 2
 1106 1446 1267 1341 1267 1018 c 0
 1267 784 1184 687 1063 636 c 1
 1370 0 l 1
 1163 0 l 1
 876 600 l 1
 865 600 420 599 420 599 c 1
 420 0 l 1
 218 0 l 1
420 752 m 1
 846 752 l 2
 1021 752 1065 861 1065 1000 c 0
 1065 1139 1050 1293 869 1293 c 2
 420 1293 l 1
 420 752 l 1
EndSplineSet
EndChar

StartChar: S
Encoding: 83 83 122
Width: 1304
VWidth: 0
Flags: HW
PickledData: "(dp1
S'org.robofab.postScriptHintData'
p2
(dp3
s."
AnchorPoint: "top" 676 1446 basechar 0
AnchorPoint: "bot" 662 0 basechar 0
LayerCount: 2
Fore
SplineSet
691 -22 m 0
 476 -22 296 25 144 113 c 1
 215 267 l 1
 325 202 510 140 687 140 c 0
 922 140 978 229 978 437 c 0
 978 518 949 573 802 620 c 1
 453 736 l 2
 253 802 171 892 171 1089 c 0
 171 1366 379 1468 656 1468 c 0
 903 1468 1048 1425 1141 1367 c 1
 1092 1210 l 1
 1005 1257 879 1306 691 1306 c 0
 492 1306 376 1260 368 1137 c 0
 367 1120 366 1103 366 1088 c 0
 366 1000 392 948 515 907 c 2
 879 784 l 2
 1076 718 1164 625 1164 406 c 0
 1164 139 1027 -22 691 -22 c 0
EndSplineSet
EndChar

StartChar: Sigma
Encoding: 931 931 130
Width: 1156
VWidth: 0
Flags: HW
PickledData: "(dp1
S'org.robofab.postScriptHintData'
p2
(dp3
s."
LayerCount: 2
Fore
SplineSet
1076 0 m 1
 112 0 l 1
 112 155 l 1
 597 762 l 1
 112 1298 l 1
 112 1446 l 1
 1076 1446 l 1
 1076 1286 l 1
 317 1286 l 1
 777 807 l 1
 777 738 l 1
 321 162 l 1
 1076 162 l 1
 1076 0 l 1
EndSplineSet
EndChar

StartChar: T
Encoding: 84 84 131
Width: 1204
VWidth: 0
Flags: HW
PickledData: "(dp1
S'org.robofab.postScriptHintData'
p2
(dp3
s."
AnchorPoint: "bot" 602 0 basechar 0
AnchorPoint: "top" 614 1446 basechar 0
AnchorPoint: "mid" 603 753 basechar 0
AnchorPoint: "center" 602 0 basechar 0
LayerCount: 2
Fore
SplineSet
501 0 m 1
 501 1281 l 1
 84 1281 l 1
 84 1446 l 1
 1120 1446 l 1
 1120 1281 l 1
 702 1281 l 1
 702 0 l 1
 501 0 l 1
EndSplineSet
EndChar

StartChar: Thorn
Encoding: 222 222 136
Width: 1320
VWidth: 0
Flags: HW
PickledData: "(dp1
S'org.robofab.postScriptHintData'
p2
(dp3
s."
LayerCount: 2
Fore
SplineSet
212 0 m 1
 212 1446 l 1
 414 1446 l 1
 414 1208 l 1
 788 1208 l 2
 1031 1208 1192 1102 1192 773 c 0
 1192 427 1033 331 787 331 c 2
 414 331 l 1
 414 0 l 1
 212 0 l 1
414 484 m 1
 791 484 l 2
 966 484 990 610 990 759 c 0
 990 900 975 1055 794 1055 c 2
 414 1055 l 1
 414 484 l 1
EndSplineSet
EndChar

StartChar: U
Encoding: 85 85 137
Width: 1538
VWidth: 0
Flags: HW
PickledData: "(dp1
S'org.robofab.postScriptHintData'
p2
(dp3
s."
AnchorPoint: "top" 779 1446 basechar 0
AnchorPoint: "ogonek" 841 0 basechar 0
LayerCount: 2
Fore
SplineSet
779 -22 m 0
 306 -22 200 202 200 473 c 2
 200 1446 l 1
 402 1446 l 1
 402 452 l 2
 402 186 578 140 779 140 c 0
 982 140 1136 186 1136 452 c 2
 1136 1446 l 1
 1338 1446 l 1
 1338 473 l 2
 1338 205 1232 -22 779 -22 c 0
EndSplineSet
EndChar

StartChar: V
Encoding: 86 86 151
Width: 1386
VWidth: 0
Flags: HW
PickledData: "(dp1
S'org.robofab.postScriptHintData'
p2
(dp3
s."
LayerCount: 2
Fore
SplineSet
602 0 m 1
 86 1446 l 1
 293 1446 l 1
 692 294 l 1
 1091 1446 l 1
 1300 1446 l 1
 779 0 l 1
 602 0 l 1
EndSplineSet
EndChar

StartChar: W
Encoding: 87 87 152
Width: 2048
VWidth: 0
Flags: HW
PickledData: "(dp1
S'org.robofab.postScriptHintData'
p2
(dp3
s."
AnchorPoint: "top" 1037 1446 basechar 0
LayerCount: 2
Fore
SplineSet
522 0 m 1
 112 1446 l 1
 296 1446 l 1
 603 346 l 1
 918 1446 l 1
 1133 1446 l 1
 1462 346 l 1
 1753 1446 l 1
 1936 1446 l 1
 1542 0 l 1
 1390 0 l 1
 1037 1232 l 1
 674 0 l 1
 522 0 l 1
EndSplineSet
EndChar

StartChar: X
Encoding: 88 88 157
Width: 1336
VWidth: 0
Flags: HW
PickledData: "(dp1
S'org.robofab.postScriptHintData'
p2
(dp3
s."
LayerCount: 2
Fore
SplineSet
94 0 m 1
 565 731 l 1
 116 1446 l 1
 319 1446 l 1
 669 898 l 1
 1010 1446 l 1
 1227 1446 l 1
 773 734 l 1
 1242 0 l 1
 1024 0 l 1
 667 568 l 1
 306 0 l 1
 94 0 l 1
EndSplineSet
EndChar

StartChar: Y
Encoding: 89 89 158
Width: 1318
VWidth: 0
Flags: HW
PickledData: "(dp1
S'org.robofab.postScriptHintData'
p2
(dp3
s."
AnchorPoint: "top" 679 1446 basechar 0
LayerCount: 2
Fore
SplineSet
560 0 m 1
 560 568 l 1
 48 1446 l 1
 261 1446 l 1
 661 744 l 1
 1063 1446 l 1
 1270 1446 l 1
 761 568 l 1
 761 0 l 1
 560 0 l 1
EndSplineSet
EndChar

StartChar: Z
Encoding: 90 90 165
Width: 1242
VWidth: 0
Flags: HW
PickledData: "(dp1
S'org.robofab.postScriptHintData'
p2
(dp3
s."
AnchorPoint: "top" 663 1446 basechar 0
LayerCount: 2
Fore
SplineSet
180 0 m 1
 180 150 l 1
 862 1281 l 1
 211 1281 l 1
 211 1446 l 1
 1083 1446 l 1
 1083 1295 l 1
 402 165 l 1
 1096 165 l 1
 1096 0 l 1
 180 0 l 1
EndSplineSet
EndChar

StartChar: a
Encoding: 97 97 169
Width: 1172
VWidth: 0
Flags: HW
PickledData: "(dp1
S'org.robofab.postScriptHintData'
p2
(dp3
sS'com.typemytype.robofont.layerData'
p4
(dp5
s."
AnchorPoint: "top" 584 1060 basechar 0
AnchorPoint: "ogonek" 1055 10 basechar 0
LayerCount: 2
Fore
SplineSet
451 -22 m 0
 227 -22 144 94 144 269 c 0
 144 412 224 483 506 586 c 2
 727 667 l 2
 769 682 781 707 781 778 c 0
 781 864 755 936 586 936 c 0
 373 936 355 863 355 778 c 2
 355 731 l 1
 174 731 l 1
 174 779 l 2
 174 988 314 1080 592 1080 c 0
 872 1080 969 938 969 720 c 2
 969 268 l 2
 969 156 989 136 1080 136 c 1
 1058 -8 l 1
 1020 -8 l 2
 879 -8 828 50 796 150 c 1
 749 78 646 -22 451 -22 c 0
323 273 m 0
 323 159 356 118 487 118 c 0
 600 118 751 199 781 297 c 1
 781 557 l 1
 542 466 l 2
 384 405 323 361 323 273 c 0
EndSplineSet
Substitution2: "Single Substitution lookup 14 subtable" ordfeminine
EndChar

StartChar: acute
Encoding: 180 180 174
Width: 616
VWidth: 0
Flags: HW
PickledData: "(dp1
S'org.robofab.postScriptHintData'
p2
(dp3
s."
AnchorPoint: "top" 253 1060 mark 0
LayerCount: 2
Fore
SplineSet
204 1204 m 1
 342 1585 l 1
 567 1585 l 1
 332 1204 l 1
 204 1204 l 1
EndSplineSet
EndChar

StartChar: ae
Encoding: 230 230 178
Width: 1741
VWidth: 0
Flags: HW
PickledData: "(dp1
S'org.robofab.postScriptHintData'
p2
(dp3
s."
AnchorPoint: "top" 896 1060 basechar 0
LayerCount: 2
Fore
SplineSet
469 -22 m 0
 244 -22 131 120 131 283 c 0
 131 423 206 502 529 575 c 0
 754 626 782 667 782 773 c 0
 782 850 771 936 579 936 c 0
 366 936 353 857 353 758 c 2
 353 731 l 1
 172 731 l 1
 172 759 l 2
 172 989 312 1080 590 1080 c 0
 728 1080 850 1035 887 939 c 1
 949 1037 1052 1080 1197 1080 c 0
 1473 1080 1609 959 1609 758 c 2
 1609 511 l 1
 969 511 l 1
 969 328 l 2
 969 186 1042 121 1189 121 c 0
 1355 121 1420 135 1433 318 c 1
 1603 318 l 1
 1582 60 1479 -22 1189 -22 c 0
 996 -22 900 75 858 178 c 1
 807 68 706 -22 469 -22 c 0
502 120 m 0
 615 120 751 181 781 279 c 1
 781 564 l 2
 781 544 718 492 562 449 c 0
 410 407 312 378 312 284 c 0
 312 165 392 120 502 120 c 0
969 633 m 1
 1437 633 l 1
 1437 778 l 2
 1437 906 1341 938 1196 938 c 0
 1046 938 969 891 969 760 c 2
 969 633 l 1
EndSplineSet
EndChar

StartChar: ampersand
Encoding: 38 38 184
Width: 1500
VWidth: 0
Flags: HW
PickledData: "(dp1
S'org.robofab.postScriptHintData'
p2
(dp3
s."
LayerCount: 2
Fore
SplineSet
720 -24 m 0
 277 -24 176 198 176 439 c 0
 176 640 245 759 439 816 c 1
 334 913 264 988 264 1142 c 0
 264 1323 355 1483 689 1483 c 0
 976 1483 1124 1441 1124 1205 c 2
 1124 1104 l 1
 958 1104 l 1
 958 1164 l 2
 958 1302 892 1331 704 1331 c 0
 494 1331 454 1242 454 1126 c 0
 454 1048 487 1002 578 907 c 1
 1100 410 l 1
 1101 424 1101 439 1101 455 c 2
 1101 778 l 1
 1276 778 l 1
 1276 500 l 2
 1276 413 1274 332 1257 261 c 1
 1432 94 l 1
 1328 -19 l 1
 1186 114 l 1
 1111 28 973 -24 720 -24 c 0
720 126 m 0
 906 126 1012 136 1063 230 c 1
 538 723 l 1
 388 680 378 567 378 445 c 0
 378 239 464 126 720 126 c 0
EndSplineSet
EndChar

StartChar: approxequal
Encoding: 8776 8776 186
Width: 881
VWidth: 0
Flags: HW
PickledData: "(dp1
S'org.robofab.postScriptHintData'
p2
(dp3
s."
LayerCount: 2
Fore
SplineSet
601 635 m 0
 464 635 342 752 271 752 c 0
 190 752 161 711 161 649 c 1
 64 649 l 1
 64 814 160 898 280 898 c 0
 417 898 539 781 610 781 c 0
 691 781 720 822 720 884 c 1
 817 884 l 1
 817 719 721 635 601 635 c 0
601 941 m 0
 464 941 342 1058 271 1058 c 0
 190 1058 161 1017 161 955 c 1
 64 955 l 1
 64 1120 160 1204 280 1204 c 0
 417 1204 539 1087 610 1087 c 0
 691 1087 720 1128 720 1190 c 1
 817 1190 l 1
 817 1025 721 941 601 941 c 0
EndSplineSet
EndChar

StartChar: asciicircum
Encoding: 94 94 188
Width: 1257
VWidth: 0
Flags: HW
PickledData: "(dp1
S'org.robofab.postScriptHintData'
p2
(dp3
s."
LayerCount: 2
Fore
SplineSet
154 626 m 1
 513 1283 l 1
 735 1283 l 1
 1103 626 l 1
 910 626 l 1
 628 1161 l 1
 348 626 l 1
 154 626 l 1
EndSplineSet
EndChar

StartChar: asciitilde
Encoding: 126 126 189
Width: 881
VWidth: 0
Flags: HW
PickledData: "(dp1
S'org.robofab.postScriptHintData'
p2
(dp3
s."
LayerCount: 2
Fore
SplineSet
601 1173 m 0
 464 1173 342 1320 271 1320 c 0
 190 1320 161 1249 161 1187 c 1
 64 1187 l 1
 64 1352 160 1466 280 1466 c 0
 417 1466 539 1319 610 1319 c 0
 691 1319 720 1390 720 1452 c 1
 817 1452 l 1
 817 1287 721 1173 601 1173 c 0
EndSplineSet
EndChar

StartChar: asterisk
Encoding: 42 42 190
Width: 1024
VWidth: 0
Flags: HW
PickledData: "(dp1
S'org.robofab.postScriptHintData'
p2
(dp3
s."
LayerCount: 2
Fore
SplineSet
423 599 m 1
 452 924 l 1
 179 750 l 1
 99 911 l 1
 389 1028 l 1
 109 1170 l 1
 204 1323 l 1
 451 1133 l 1
 423 1446 l 1
 601 1446 l 1
 571 1121 l 1
 844 1295 l 1
 925 1134 l 1
 634 1017 l 1
 914 875 l 1
 819 722 l 1
 572 912 l 1
 601 599 l 1
 423 599 l 1
EndSplineSet
EndChar

StartChar: at
Encoding: 64 64 191
Width: 2048
VWidth: 0
Flags: HW
PickledData: "(dp1
S'org.robofab.postScriptHintData'
p2
(dp3
s."
LayerCount: 2
Fore
SplineSet
1104 -258 m 0
 566 -258 362 -3 362 332 c 2
 362 895 l 2
 362 1236 521 1483 1062 1483 c 0
 1671 1483 1676 1163 1676 972 c 0
 1676 503 1676 491 1676 479 c 0
 1676 392 1682 360 1792 360 c 1
 1772 212 l 1
 1732 212 l 2
 1575 212 1546 294 1521 376 c 1
 1468 296 1338 195 1121 195 c 0
 870 195 744 351 744 533 c 0
 744 689 811 790 1197 883 c 0
 1330 915 1496 955 1497 955 c 1
 1497 1180 1461 1331 1062 1331 c 0
 729 1331 552 1222 552 936 c 2
 552 298 l 2
 552 13 769 -111 1104 -111 c 0
 1319 -111 1520 -61 1621 -17 c 1
 1671 -158 l 1
 1556 -207 1327 -258 1104 -258 c 0
1153 343 m 0
 1279 343 1464 412 1497 522 c 1
 1497 825 l 1
 1479 816 1365 788 1213 749 c 0
 991 692 946 636 946 539 c 0
 946 404 1028 343 1153 343 c 0
EndSplineSet
EndChar

StartChar: b
Encoding: 98 98 193
Width: 1204
VWidth: 0
Flags: HW
PickledData: "(dp1
S'org.robofab.postScriptHintData'
p2
(dp3
s."
AnchorPoint: "top" 664 1060 basechar 0
LayerCount: 2
Fore
SplineSet
626 -22 m 0
 500 -22 405 36 349 71 c 1
 325 0 l 1
 186 0 l 1
 186 1506 l 1
 374 1506 l 1
 374 1010 l 1
 442 1049 551 1080 650 1080 c 0
 921 1080 1056 940 1056 736 c 2
 1056 352 l 2
 1056 139 902 -22 626 -22 c 0
598 126 m 0
 746 126 868 202 868 332 c 2
 868 750 l 2
 868 877 779 936 641 936 c 0
 553 936 444 902 374 870 c 1
 374 188 l 1
 429 157 509 126 598 126 c 0
EndSplineSet
EndChar

StartChar: backslash
Encoding: 92 92 194
Width: 768
VWidth: 0
Flags: HW
PickledData: "(dp1
S'org.robofab.postScriptHintData'
p2
(dp3
s."
LayerCount: 2
Fore
SplineSet
521 0 m 1
 64 1506 l 1
 251 1506 l 1
 704 0 l 1
 521 0 l 1
EndSplineSet
EndChar

StartChar: bar
Encoding: 124 124 195
Width: 690
VWidth: 0
Flags: HW
PickledData: "(dp1
S'org.robofab.postScriptHintData'
p2
(dp3
s."
LayerCount: 2
Fore
SplineSet
256 -167 m 1
 256 1555 l 1
 434 1555 l 1
 434 -167 l 1
 256 -167 l 1
EndSplineSet
EndChar

StartChar: braceleft
Encoding: 123 123 197
Width: 952
VWidth: 0
Flags: HW
PickledData: "(dp1
S'org.robofab.postScriptHintData'
p2
(dp3
s."
LayerCount: 2
Fore
SplineSet
867 -207 m 1
 392 -207 387 -42 387 253 c 2
 387 294 l 2
 387 552 338 575 234 575 c 0
 211 575 187 574 159 574 c 1
 159 725 l 1
 187 725 211 724 234 724 c 0
 338 724 387 747 387 1005 c 2
 387 1046 l 2
 387 1341 392 1506 867 1506 c 1
 867 1355 l 1
 585 1355 579 1297 579 1064 c 2
 579 1002 l 2
 579 830 549 686 475 649 c 1
 549 613 579 469 579 297 c 2
 579 235 l 2
 579 2 585 -56 867 -56 c 1
 867 -207 l 1
EndSplineSet
EndChar

StartChar: braceright
Encoding: 125 125 198
Width: 952
VWidth: 0
Flags: HW
PickledData: "(dp1
S'org.robofab.postScriptHintData'
p2
(dp3
s."
LayerCount: 2
Fore
SplineSet
128 -207 m 1
 128 -56 l 1
 410 -56 416 2 416 235 c 2
 416 297 l 2
 416 469 446 613 520 649 c 1
 446 686 416 830 416 1002 c 2
 416 1064 l 2
 416 1297 410 1355 128 1355 c 1
 128 1506 l 1
 603 1506 608 1341 608 1046 c 2
 608 1005 l 2
 608 747 657 724 761 724 c 0
 784 724 808 725 836 725 c 1
 836 574 l 1
 808 574 784 575 761 575 c 0
 657 575 608 552 608 294 c 2
 608 253 l 2
 608 -42 603 -207 128 -207 c 1
EndSplineSet
EndChar

StartChar: bracketleft
Encoding: 91 91 199
Width: 768
VWidth: 0
Flags: HW
PickledData: "(dp1
S'org.robofab.postScriptHintData'
p2
(dp3
s."
LayerCount: 2
Fore
SplineSet
256 -76 m 1
 256 1529 l 1
 634 1529 l 1
 634 1396 l 1
 444 1396 l 1
 444 58 l 1
 634 58 l 1
 634 -76 l 1
 256 -76 l 1
EndSplineSet
EndChar

StartChar: bracketright
Encoding: 93 93 200
Width: 768
VWidth: 0
Flags: HW
PickledData: "(dp1
S'org.robofab.postScriptHintData'
p2
(dp3
s."
LayerCount: 2
Fore
SplineSet
195 -76 m 1
 195 57 l 1
 385 57 l 1
 385 1395 l 1
 195 1395 l 1
 195 1529 l 1
 573 1529 l 1
 573 -76 l 1
 195 -76 l 1
EndSplineSet
EndChar

StartChar: breve
Encoding: 728 728 201
Width: 512
VWidth: 0
Flags: HW
PickledData: "(dp1
S'org.robofab.postScriptHintData'
p2
(dp3
s."
AnchorPoint: "top" 267 1060 mark 0
LayerCount: 2
Fore
SplineSet
256 1294 m 0
 117 1294 30 1391 30 1506 c 1
 156 1506 l 1
 156 1446 206 1416 256 1416 c 0
 306 1416 356 1446 356 1506 c 1
 482 1506 l 1
 482 1391 395 1294 256 1294 c 0
EndSplineSet
EndChar

StartChar: brokenbar
Encoding: 166 166 202
Width: 674
VWidth: 0
Flags: HW
PickledData: "(dp1
S'org.robofab.postScriptHintData'
p2
(dp3
s."
LayerCount: 2
Fore
SplineSet
254 -167 m 1
 254 513 l 1
 432 513 l 1
 432 -167 l 1
 254 -167 l 1
254 848 m 1
 254 1555 l 1
 432 1555 l 1
 432 848 l 1
 254 848 l 1
EndSplineSet
EndChar

StartChar: bullet
Encoding: 8226 8226 203
Width: 975
VWidth: 0
Flags: HW
PickledData: "(dp1
S'org.robofab.postScriptHintData'
p2
(dp3
s."
LayerCount: 2
Fore
SplineSet
486 298 m 0
 260 298 180 404 180 599 c 0
 180 795 262 901 487 901 c 0
 714 901 795 795 795 599 c 0
 795 405 713 298 486 298 c 0
EndSplineSet
EndChar

StartChar: bulletoperator
Encoding: 8729 8729 204
Width: 792
VWidth: 0
Flags: HW
PickledData: "(dp1
S'org.robofab.postScriptHintData'
p2
(dp3
s."
LayerCount: 2
Fore
SplineSet
396 325 m 0
 265 325 168 432 168 563 c 0
 168 694 265 801 396 801 c 0
 527 801 624 694 624 563 c 0
 624 432 527 325 396 325 c 0
EndSplineSet
EndChar

StartChar: c
Encoding: 99 99 205
Width: 1106
VWidth: 0
Flags: HW
PickledData: "(dp1
S'org.robofab.postScriptHintData'
p2
(dp3
s."
AnchorPoint: "top" 594 1060 basechar 0
AnchorPoint: "bot" 559 0 basechar 0
LayerCount: 2
Fore
SplineSet
579 -22 m 0
 263 -22 148 148 148 344 c 2
 148 748 l 2
 148 948 311 1080 574 1080 c 0
 828 1080 992 1009 992 724 c 1
 813 707 l 1
 812 901 755 936 579 936 c 0
 417 936 336 884 336 743 c 2
 336 328 l 2
 336 176 427 122 579 122 c 0
 765 122 802 150 816 310 c 1
 990 310 l 1
 969 66 867 -22 579 -22 c 0
EndSplineSet
EndChar

StartChar: caron
Encoding: 711 711 207
Width: 512
VWidth: 0
Flags: HW
PickledData: "(dp1
S'org.robofab.postScriptHintData'
p2
(dp3
s."
AnchorPoint: "top" 256 1060 mark 0
LayerCount: 2
Fore
SplineSet
336 1287 m 1
 186 1287 l 1
 -30 1553 l 1
 150 1553 l 1
 262 1409 l 1
 366 1553 l 1
 542 1553 l 1
 336 1287 l 1
EndSplineSet
EndChar

StartChar: caron.alt
Encoding: 65538 -1 208
Width: 600
VWidth: 0
Flags: HW
PickledData: "(dp1
S'org.robofab.postScriptHintData'
p2
(dp3
s."
AnchorPoint: "caron.alt" 312 1060 mark 0
LayerCount: 2
Fore
SplineSet
703 1222 m 1
 622 1266 l 1
 669 1321 759 1428 759 1560 c 1
 618 1560 l 1
 618 1793 l 1
 875 1793 l 1
 875 1610 l 2
 875 1419 761 1276 703 1222 c 1
EndSplineSet
EndChar

StartChar: cedilla
Encoding: 184 184 213
Width: 512
VWidth: 0
Flags: HW
PickledData: "(dp1
S'org.robofab.postScriptHintData'
p2
(dp3
s."
AnchorPoint: "bot" 205 0 mark 0
LayerCount: 2
Fore
SplineSet
213 -486 m 0
 185 -486 154 -484 120 -478 c 1
 120 -382 l 1
 146 -387 170 -389 191 -389 c 0
 289 -389 331 -342 331 -290 c 0
 331 -229 271 -161 171 -158 c 1
 171 0 l 1
 233 0 l 1
 239 -94 l 1
 386 -120 460 -214 460 -303 c 0
 460 -397 378 -486 213 -486 c 0
EndSplineSet
EndChar

StartChar: cent
Encoding: 162 162 214
Width: 1110
VWidth: 0
Flags: HW
PickledData: "(dp1
S'org.robofab.postScriptHintData'
p2
(dp3
s."
LayerCount: 2
Fore
SplineSet
540 -205 m 1
 643 -205 l 1
 643 -20 l 1
 882 -7 971 85 990 310 c 1
 816 310 l 1
 802 150 765 122 579 122 c 0
 427 122 336 176 336 328 c 2
 336 743 l 2
 336 884 417 936 579 936 c 0
 755 936 812 901 813 707 c 1
 992 724 l 1
 992 982 857 1065 643 1078 c 1
 643 1277 l 1
 540 1277 l 1
 540 1079 l 1
 297 1068 148 939 148 748 c 2
 148 344 l 2
 148 156 253 -7 540 -21 c 1
 540 -205 l 1
EndSplineSet
EndChar

StartChar: circumflex
Encoding: 710 710 215
Width: 512
VWidth: 0
Flags: HW
PickledData: "(dp1
S'org.robofab.postScriptHintData'
p2
(dp3
s."
AnchorPoint: "top" 256 1060 mark 0
LayerCount: 2
Fore
SplineSet
-30 1287 m 1
 186 1553 l 1
 336 1553 l 1
 542 1287 l 1
 366 1287 l 1
 262 1431 l 1
 150 1287 l 1
 -30 1287 l 1
EndSplineSet
EndChar

StartChar: comma
Encoding: 44 44 217
Width: 641
VWidth: 0
Flags: HW
PickledData: "(dp1
S'org.robofab.postScriptHintData'
p2
(dp3
s."
LayerCount: 2
Fore
SplineSet
277 -338 m 1
 196 -294 l 1
 243 -239 333 -132 333 0 c 1
 192 0 l 1
 192 233 l 1
 449 233 l 1
 449 50 l 2
 449 -141 335 -284 277 -338 c 1
EndSplineSet
EndChar

StartChar: copyright
Encoding: 169 169 218
Width: 1784
VWidth: 0
Flags: HW
PickledData: "(dp1
S'org.robofab.postScriptHintData'
p2
(dp3
s."
LayerCount: 2
Fore
SplineSet
903 287 m 0
 616 287 551 411 551 590 c 2
 551 868 l 2
 551 1050 614 1182 902 1182 c 0
 1179 1182 1228 1043 1228 861 c 2
 1228 836 l 1
 1112 826 l 1
 1112 890 l 2
 1112 1042 1054 1091 902 1091 c 0
 751 1091 671 1042 671 890 c 2
 671 571 l 2
 671 419 751 376 903 376 c 0
 1056 376 1112 419 1112 571 c 2
 1112 632 l 1
 1228 632 l 1
 1228 598 l 2
 1228 422 1179 287 903 287 c 0
894 82 m 0
 1260 82 1522 357 1522 722 c 0
 1522 1086 1260 1361 894 1361 c 0
 530 1361 265 1086 265 722 c 0
 265 357 530 82 894 82 c 0
892 -14 m 0
 479 -14 156 303 156 722 c 0
 156 1139 479 1456 892 1456 c 0
 1308 1456 1628 1139 1628 722 c 0
 1628 303 1308 -14 892 -14 c 0
EndSplineSet
EndChar

StartChar: currency
Encoding: 164 164 219
Width: 1149
VWidth: 0
Flags: HW
PickledData: "(dp1
S'org.robofab.postScriptHintData'
p2
(dp3
s."
LayerCount: 2
Fore
SplineSet
564 360 m 0
 469 360 384 398 324 468 c 1
 177 360 l 1
 126 443 l 1
 274 549 l 1
 255 592 245 640 245 689 c 0
 245 752 261 811 291 862 c 1
 116 979 l 1
 170 1061 l 1
 350 937 l 1
 407 991 482 1018 564 1018 c 0
 647 1018 723 990 780 935 c 1
 973 1075 l 1
 1023 993 l 1
 839 860 l 1
 866 809 883 751 883 689 c 0
 883 648 876 608 862 571 c 1
 1033 457 l 1
 981 376 l 1
 817 486 l 1
 759 406 666 360 564 360 c 0
565 444 m 0
 694 444 790 555 790 690 c 0
 790 826 694 936 565 936 c 0
 436 936 340 826 340 690 c 0
 340 555 436 444 565 444 c 0
EndSplineSet
EndChar

StartChar: d
Encoding: 100 100 220
Width: 1200
VWidth: 0
Flags: HW
PickledData: "(dp1
S'org.robofab.postScriptHintData'
p2
(dp3
s."
AnchorPoint: "caron.alt" 826 1060 basechar 0
AnchorPoint: "top" 584 1060 basechar 0
AnchorPoint: "mid" 917 1275 basechar 0
LayerCount: 2
Fore
SplineSet
568 -22 m 0
 263 -22 148 131 148 335 c 2
 148 735 l 2
 148 948 283 1080 591 1080 c 0
 658 1080 760 1064 826 1040 c 1
 826 1506 l 1
 1014 1506 l 1
 1014 0 l 1
 886 0 l 1
 855 70 l 1
 793 22 677 -22 568 -22 c 0
580 126 m 0
 687 126 783 163 826 189 c 1
 826 892 l 1
 770 919 681 936 593 936 c 0
 445 936 336 886 336 756 c 2
 336 321 l 2
 336 189 442 126 580 126 c 0
EndSplineSet
EndChar

StartChar: dagger
Encoding: 8224 8224 221
Width: 890
VWidth: 0
Flags: HW
PickledData: "(dp1
S'org.robofab.postScriptHintData'
p2
(dp3
s."
LayerCount: 2
Fore
SplineSet
348 0 m 1
 348 931 l 1
 88 931 l 1
 88 1060 l 1
 348 1060 l 1
 348 1446 l 1
 536 1446 l 1
 536 1060 l 1
 802 1060 l 1
 802 931 l 1
 536 931 l 1
 536 0 l 1
 348 0 l 1
EndSplineSet
EndChar

StartChar: daggerdbl
Encoding: 8225 8225 222
Width: 938
VWidth: 0
Flags: HW
PickledData: "(dp1
S'org.robofab.postScriptHintData'
p2
(dp3
s."
LayerCount: 2
Fore
SplineSet
372 0 m 1
 372 409 l 1
 112 409 l 1
 112 538 l 1
 372 538 l 1
 372 931 l 1
 112 931 l 1
 112 1060 l 1
 372 1060 l 1
 372 1446 l 1
 560 1446 l 1
 560 1060 l 1
 826 1060 l 1
 826 931 l 1
 560 931 l 1
 560 538 l 1
 826 538 l 1
 826 409 l 1
 560 409 l 1
 560 0 l 1
 372 0 l 1
EndSplineSet
EndChar

StartChar: degree
Encoding: 176 176 226
Width: 1036
VWidth: 0
Flags: HW
PickledData: "(dp1
S'org.robofab.postScriptHintData'
p2
(dp3
s."
LayerCount: 2
Fore
SplineSet
519 885 m 0
 650 885 747 992 747 1123 c 0
 747 1254 650 1361 519 1361 c 0
 388 1361 291 1254 291 1123 c 0
 291 992 388 885 519 885 c 0
518 798 m 0
 340 798 194 943 194 1122 c 0
 194 1300 340 1446 518 1446 c 0
 696 1446 842 1300 842 1122 c 0
 842 943 696 798 518 798 c 0
EndSplineSet
EndChar

StartChar: dieresis
Encoding: 168 168 227
Width: 1025
VWidth: 0
Flags: HW
PickledData: "(dp1
S'org.robofab.postScriptHintData'
p2
(dp3
s."
AnchorPoint: "top" 513 1060 mark 0
LayerCount: 2
Fore
SplineSet
158 1343 m 1
 158 1524 l 1
 364 1524 l 1
 364 1343 l 1
 158 1343 l 1
661 1343 m 1
 661 1524 l 1
 867 1524 l 1
 867 1343 l 1
 661 1343 l 1
EndSplineSet
EndChar

StartChar: divide
Encoding: 247 247 228
Width: 1025
VWidth: 0
Flags: HW
PickledData: "(dp1
S'org.robofab.postScriptHintData'
p2
(dp3
s."
LayerCount: 2
Fore
SplineSet
413 90 m 1
 413 299 l 1
 618 299 l 1
 618 90 l 1
 413 90 l 1
100 472 m 1
 100 609 l 1
 925 609 l 1
 925 472 l 1
 100 472 l 1
413 787 m 1
 413 996 l 1
 618 996 l 1
 618 787 l 1
 413 787 l 1
EndSplineSet
EndChar

StartChar: dollar
Encoding: 36 36 229
Width: 1303
VWidth: 0
Flags: HW
PickledData: "(dp1
S'org.robofab.postScriptHintData'
p2
(dp3
s."
LayerCount: 2
Fore
SplineSet
620 1304 m 1
 620 872 l 1
 515 907 l 2
 392 948 366 1000 366 1088 c 0
 366 1103 367 1120 368 1137 c 0
 375 1245 465 1293 620 1304 c 1
730 141 m 1
 730 644 l 1
 802 620 l 1
 949 573 978 518 978 437 c 0
 978 242 929 152 730 141 c 1
620 -372 m 1
 730 -372 l 1
 730 -21 l 1
 1038 -9 1164 150 1164 406 c 0
 1164 625 1076 718 879 784 c 2
 730 834 l 1
 730 1305 l 1
 897 1299 1011 1254 1092 1210 c 1
 1141 1367 l 1
 1058 1419 933 1459 730 1467 c 1
 730 1758 l 1
 620 1758 l 1
 620 1467 l 1
 361 1458 171 1354 171 1089 c 0
 171 892 253 802 453 736 c 2
 620 680 l 1
 620 143 l 1
 465 156 311 210 215 267 c 1
 144 113 l 1
 279 35 436 -11 620 -20 c 1
 620 -372 l 1
EndSplineSet
EndChar

StartChar: dotaccent
Encoding: 729 729 230
Width: 512
VWidth: 0
Flags: HW
PickledData: "(dp1
S'org.robofab.postScriptHintData'
p2
(dp3
s."
AnchorPoint: "top" 256 1060 mark 0
LayerCount: 2
Fore
SplineSet
149 1327 m 1
 149 1535 l 1
 342 1535 l 1
 342 1327 l 1
 149 1327 l 1
EndSplineSet
EndChar

StartChar: dotlessi
Encoding: 305 305 231
Width: 556
VWidth: 0
Flags: HW
PickledData: "(dp1
S'org.robofab.postScriptHintData'
p2
(dp3
s."
AnchorPoint: "top" 295 1060 basechar 0
AnchorPoint: "ogonek" 304 0 basechar 0
LayerCount: 2
Fore
SplineSet
192 0 m 1
 192 1060 l 1
 380 1060 l 1
 380 0 l 1
 192 0 l 1
EndSplineSet
EndChar

StartChar: dotlessj
Encoding: 567 567 232
Width: 595
VWidth: 0
Flags: HW
PickledData: "(dp1
S'org.robofab.postScriptHintData'
p2
(dp3
s."
AnchorPoint: "top" 331 1060 basechar 0
LayerCount: 2
Fore
SplineSet
27 -353 m 1
 8 -197 l 1
 37 -197 l 2
 170 -197 227 -174 227 -4 c 2
 227 1060 l 1
 415 1060 l 1
 415 7 l 2
 415 -305 299 -353 93 -353 c 2
 27 -353 l 1
EndSplineSet
EndChar

StartChar: e
Encoding: 101 101 235
Width: 1138
VWidth: 0
Flags: HW
PickledData: "(dp1
S'org.robofab.postScriptHintData'
p2
(dp3
s."
AnchorPoint: "top" 584 1060 basechar 0
AnchorPoint: "ogonek" 697 0 basechar 0
AnchorPoint: "bot" 589 0 basechar 0
LayerCount: 2
Fore
SplineSet
589 -22 m 0
 273 -22 148 110 148 374 c 2
 148 743 l 2
 148 943 278 1080 582 1080 c 0
 873 1080 1006 959 1006 758 c 2
 1006 506 l 1
 336 506 l 1
 336 357 l 2
 336 185 389 122 589 122 c 0
 766 122 822 122 838 282 c 1
 1004 282 l 1
 978 32 883 -22 589 -22 c 0
336 633 m 1
 824 633 l 1
 824 778 l 2
 824 906 727 936 582 936 c 0
 432 936 336 891 336 760 c 2
 336 633 l 1
EndSplineSet
EndChar

StartChar: eight
Encoding: 56 56 244
Width: 1250
VWidth: 0
Flags: HW
PickledData: "(dp1
S'org.robofab.postScriptHintData'
p2
(dp3
s."
LayerCount: 2
Fore
SplineSet
621 -22 m 0
 327 -22 132 103 132 367 c 0
 132 580 280 703 438 773 c 1
 287 842 160 922 160 1108 c 0
 160 1375 371 1468 626 1468 c 0
 878 1468 1090 1375 1090 1108 c 0
 1090 922 962 842 811 773 c 1
 969 703 1118 580 1118 367 c 0
 1118 103 921 -22 621 -22 c 0
626 140 m 0
 814 140 927 199 927 372 c 0
 927 529 787 610 625 689 c 1
 462 610 323 529 323 372 c 0
 323 199 435 140 626 140 c 0
625 846 m 1
 771 917 895 977 895 1107 c 0
 895 1230 825 1306 626 1306 c 0
 425 1306 355 1230 355 1107 c 0
 355 977 479 916 625 846 c 1
EndSplineSet
EndChar

StartChar: emdash
Encoding: 8212 8212 248
Width: 1101
VWidth: 0
Flags: HW
PickledData: "(dp1
S'org.robofab.postScriptHintData'
p2
(dp3
s."
LayerCount: 2
Fore
SplineSet
2 402 m 1
 2 548 l 1
 1098 548 l 1
 1098 402 l 1
 2 402 l 1
EndSplineSet
EndChar

StartChar: emptyset
Encoding: 8709 8709 249
Width: 1552
VWidth: 0
Flags: HW
PickledData: "(dp1
S'org.robofab.postScriptHintData'
p2
(dp3
s."
LayerCount: 2
Fore
SplineSet
1084 1098 m 1
 1001 1160 896 1196 778 1196 c 0
 485 1196 271 974 271 682 c 0
 271 532 327 400 421 308 c 1
 1084 1098 l 1
1149 1040 m 1
 488 253 l 1
 569 198 668 167 778 167 c 0
 1072 167 1283 388 1283 682 c 0
 1283 824 1234 949 1149 1040 c 1
207 54 m 1
 353 228 l 1
 233 339 160 499 160 682 c 0
 160 1031 430 1296 776 1296 c 0
 918 1296 1046 1252 1149 1176 c 1
 1284 1337 l 1
 1351 1281 l 1
 1215 1119 l 1
 1325 1009 1392 856 1392 682 c 0
 1392 331 1124 66 776 66 c 0
 643 66 521 106 421 174 c 1
 274 -2 l 1
 207 54 l 1
EndSplineSet
EndChar

StartChar: endash
Encoding: 8211 8211 250
Width: 539
VWidth: 0
Flags: HW
PickledData: "(dp1
S'org.robofab.postScriptHintData'
p2
(dp3
s."
LayerCount: 2
Fore
SplineSet
2 606 m 1
 2 732 l 1
 535 732 l 1
 535 606 l 1
 2 606 l 1
EndSplineSet
EndChar

StartChar: eng
Encoding: 331 331 251
Width: 1226
VWidth: 0
Flags: HW
PickledData: "(dp1
S'org.robofab.postScriptHintData'
p2
(dp3
s."
LayerCount: 2
Fore
SplineSet
641 -316 m 1
 613 -175 l 1
 861 -175 862 -100 862 212 c 2
 862 781 l 2
 862 886 771 936 640 936 c 0
 456 936 374 857 374 755 c 2
 374 0 l 1
 186 0 l 1
 186 1060 l 1
 374 1060 l 1
 374 957 l 1
 436 1029 534 1080 688 1080 c 0
 949 1080 1050 938 1050 770 c 2
 1050 219 l 2
 1050 -162 987 -316 641 -316 c 1
EndSplineSet
EndChar

StartChar: equal
Encoding: 61 61 253
Width: 1250
VWidth: 0
Flags: HW
PickledData: "(dp1
S'org.robofab.postScriptHintData'
p2
(dp3
s."
LayerCount: 2
Fore
SplineSet
224 467 m 1
 224 615 l 1
 1026 615 l 1
 1026 467 l 1
 224 467 l 1
224 805 m 1
 224 953 l 1
 1026 953 l 1
 1026 805 l 1
 224 805 l 1
EndSplineSet
EndChar

StartChar: estimated
Encoding: 8494 8494 254
Width: 1199
VWidth: 0
Flags: HW
PickledData: "(dp1
S'org.robofab.postScriptHintData'
p2
(dp3
s."
LayerCount: 2
Fore
SplineSet
638 1210 m 0
 519 1210 397 1161 325 1067 c 1
 325 790 l 1
 939 790 l 1
 939 1065 l 1
 873 1162 757 1210 638 1210 c 0
95 730 m 0
 95 1041 317 1280 637 1280 c 0
 955 1280 1109 1049 1109 710 c 1
 325 710 l 1
 325 406 l 1
 407 312 529 264 657 264 c 0
 797 264 943 321 1050 436 c 1
 1101 385 l 1
 1002 267 868 178 662 178 c 0
 282 178 95 413 95 730 c 0
EndSplineSet
EndChar

StartChar: eth
Encoding: 240 240 255
Width: 1158
VWidth: 0
Flags: HW
PickledData: "(dp1
S'org.robofab.postScriptHintData'
p2
(dp3
s."
LayerCount: 2
Fore
SplineSet
587 -20 m 0
 271 -20 150 118 150 314 c 2
 150 646 l 2
 150 846 314 975 577 975 c 0
 693 975 795 934 822 911 c 1
 822 1112 734 1238 612 1304 c 1
 471 1100 l 1
 376 1152 l 1
 506 1341 l 1
 447 1352 390 1356 339 1356 c 0
 288 1356 244 1352 210 1349 c 1
 238 1477 l 1
 273 1483 330 1492 403 1492 c 0
 460 1492 526 1487 596 1470 c 1
 697 1617 l 1
 792 1565 l 1
 693 1427 l 1
 924 1312 1010 1058 1010 736 c 2
 1010 365 l 2
 1010 170 970 -20 587 -20 c 0
587 121 m 0
 802 121 825 213 825 329 c 0
 825 339 825 349 825 359 c 2
 825 783 l 1
 778 813 647 833 587 833 c 0
 441 833 337 783 337 652 c 2
 337 308 l 2
 337 166 440 121 587 121 c 0
EndSplineSet
EndChar

StartChar: exclam
Encoding: 33 33 257
Width: 768
VWidth: 0
Flags: HW
PickledData: "(dp1
S'org.robofab.postScriptHintData'
p2
(dp3
s."
LayerCount: 2
Fore
SplineSet
280 0 m 1
 280 206 l 1
 484 206 l 1
 484 0 l 1
 280 0 l 1
353 371 m 1
 353 371 286 1060 286 1446 c 1
 488 1446 l 1
 488 1060 409 371 409 371 c 1
 353 371 l 1
EndSplineSet
EndChar

StartChar: f
Encoding: 102 102 259
Width: 782
VWidth: 0
Flags: HW
PickledData: "(dp1
S'org.robofab.postScriptHintData'
p2
(dp3
s."
AnchorPoint: "top" 388 1446 basechar 0
LayerCount: 2
Fore
SplineSet
279 0 m 1
 279 918 l 1
 102 918 l 1
 102 1060 l 1
 279 1060 l 1
 279 1221 l 2
 279 1419 387 1505 605 1505 c 2
 724 1505 l 1
 736 1372 l 1
 620 1372 l 2
 505 1372 467 1315 467 1239 c 2
 467 1060 l 1
 724 1060 l 1
 724 918 l 1
 467 918 l 1
 467 0 l 1
 279 0 l 1
EndSplineSet
EndChar

StartChar: five
Encoding: 53 53 263
Width: 1250
VWidth: 0
Flags: HW
PickledData: "(dp1
S'org.robofab.postScriptHintData'
p2
(dp3
s."
LayerCount: 2
Fore
SplineSet
632 -22 m 0
 408 -22 277 46 173 107 c 1
 226 260 l 1
 330 191 420 140 624 140 c 0
 813 140 928 246 928 439 c 0
 928 633 845 762 645 762 c 0
 546 762 485 727 382 652 c 1
 236 712 l 1
 287 1446 l 1
 1024 1446 l 1
 1024 1281 l 1
 448 1281 l 1
 406 819 l 1
 469 877 568 911 669 911 c 0
 968 911 1117 734 1117 449 c 0
 1117 169 924 -22 632 -22 c 0
EndSplineSet
EndChar

StartChar: florin
Encoding: 402 402 265
Width: 890
VWidth: 0
Flags: HW
PickledData: "(dp1
S'org.robofab.postScriptHintData'
p2
(dp3
s."
LayerCount: 2
Fore
SplineSet
251 -190 m 0
 218 -190 181 -188 141 -183 c 1
 141 -59 l 1
 158 -61 174 -61 189 -61 c 0
 300 -61 333 -18 333 63 c 2
 333 727 l 1
 216 727 l 1
 216 858 l 1
 333 858 l 1
 333 1155 l 2
 333 1372 398 1464 606 1464 c 0
 637 1464 672 1462 710 1458 c 1
 710 1334 l 1
 699 1335 690 1335 680 1335 c 0
 542 1335 521 1263 521 1177 c 2
 521 858 l 1
 650 858 l 1
 650 727 l 1
 521 727 l 1
 521 91 l 2
 521 -98 452 -190 251 -190 c 0
EndSplineSet
EndChar

StartChar: four
Encoding: 52 52 266
Width: 1250
VWidth: 0
Flags: HW
PickledData: "(dp1
S'org.robofab.postScriptHintData'
p2
(dp3
s."
LayerCount: 2
Fore
SplineSet
783 0 m 1
 783 351 l 1
 143 351 l 1
 143 508 l 1
 672 1446 l 1
 881 1446 l 1
 367 506 l 1
 783 506 l 1
 783 837 l 1
 950 837 l 1
 950 506 l 1
 1162 506 l 1
 1162 351 l 1
 950 351 l 1
 950 0 l 1
 783 0 l 1
EndSplineSet
Substitution2: "'sups' Superscript lookup 11 subtable" foursuperior
EndChar

StartChar: foursuperior
Encoding: 8308 8308 267
Width: 1050
VWidth: 0
Flags: HW
PickledData: "(dp1
S'org.robofab.postScriptHintData'
p2
(dp3
s."
LayerCount: 2
Fore
SplineSet
593 694 m 1
 593 877 l 1
 189 877 l 1
 189 972 l 1
 548 1545 l 1
 689 1545 l 1
 351 979 l 1
 593 979 l 1
 593 1186 l 1
 712 1186 l 1
 712 979 l 1
 840 979 l 1
 840 877 l 1
 712 877 l 1
 712 694 l 1
 593 694 l 1
EndSplineSet
EndChar

StartChar: fraction
Encoding: 8260 8260 268
Width: 768
VWidth: 0
Flags: HW
PickledData: "(dp1
S'org.robofab.postScriptHintData'
p2
(dp3
s."
LayerCount: 2
Fore
SplineSet
16 0 m 1
 569 1506 l 1
 752 1506 l 1
 203 0 l 1
 16 0 l 1
EndSplineSet
EndChar

StartChar: g
Encoding: 103 103 269
Width: 1182
VWidth: 0
Flags: HW
PickledData: "(dp1
S'org.robofab.postScriptHintData'
p2
(dp3
s."
AnchorPoint: "top" 565 1060 basechar 0
LayerCount: 2
Fore
SplineSet
603 -408 m 0
 460 -408 331 -397 253 -368 c 1
 295 -227 l 1
 353 -248 464 -265 564 -265 c 0
 749 -265 822 -188 822 -31 c 2
 822 116 l 1
 762 60 623 40 550 40 c 0
 279 40 148 159 148 379 c 2
 148 728 l 2
 148 941 274 1080 550 1080 c 0
 658 1080 792 1025 822 975 c 1
 822 1060 l 1
 1010 1060 l 1
 1010 25 l 2
 1010 -223 883 -408 603 -408 c 0
579 184 m 0
 719 184 792 240 822 264 c 1
 822 790 l 2
 822 882 745 936 578 936 c 0
 430 936 336 878 336 748 c 2
 336 350 l 2
 336 223 441 184 579 184 c 0
EndSplineSet
EndChar

StartChar: germandbls
Encoding: 223 223 276
Width: 1281
VWidth: 0
Flags: HW
PickledData: "(dp1
S'org.robofab.postScriptHintData'
p2
(dp3
s."
LayerCount: 2
Fore
SplineSet
190 0 m 1
 190 1103 l 2
 190 1401 396 1483 652 1483 c 0
 933 1483 1057 1347 1057 1135 c 0
 1057 979 1010 908 902 878 c 1
 1019 829 1166 786 1166 488 c 0
 1166 119 942 0 536 0 c 1
 518 148 l 1
 786 168 991 182 991 485 c 0
 991 743 838 770 600 770 c 1
 600 912 l 1
 818 912 869 989 869 1119 c 0
 869 1296 781 1332 643 1332 c 0
 497 1332 378 1305 378 1131 c 2
 378 0 l 1
 190 0 l 1
EndSplineSet
EndChar

StartChar: grave
Encoding: 96 96 277
Width: 616
VWidth: 0
Flags: HW
PickledData: "(dp1
S'org.robofab.postScriptHintData'
p2
(dp3
s."
AnchorPoint: "top" 339 1060 mark 0
LayerCount: 2
Fore
SplineSet
25 1585 m 1
 250 1585 l 1
 388 1204 l 1
 260 1204 l 1
 25 1585 l 1
EndSplineSet
EndChar

StartChar: greater
Encoding: 62 62 278
Width: 1250
VWidth: 0
Flags: HW
PickledData: "(dp1
S'org.robofab.postScriptHintData'
p2
(dp3
s."
LayerCount: 2
Fore
SplineSet
208 0 m 1
 208 203 l 1
 939 571 l 1
 208 935 l 1
 208 1144 l 1
 1094 673 l 1
 1094 472 l 1
 208 0 l 1
EndSplineSet
EndChar

StartChar: guillemotleft
Encoding: 171 171 280
Width: 1054
VWidth: 0
Flags: HW
PickledData: "(dp1
S'org.robofab.postScriptHintData'
p2
(dp3
s."
LayerCount: 2
Fore
SplineSet
376 80 m 1
 96 530 l 1
 369 980 l 1
 516 910 l 1
 309 530 l 1
 516 150 l 1
 376 80 l 1
790 80 m 1
 510 530 l 1
 783 980 l 1
 928 910 l 1
 723 530 l 1
 928 150 l 1
 790 80 l 1
EndSplineSet
EndChar

StartChar: guillemotright
Encoding: 187 187 281
Width: 1054
VWidth: 0
Flags: HW
PickledData: "(dp1
S'org.robofab.postScriptHintData'
p2
(dp3
s."
LayerCount: 2
Fore
SplineSet
271 80 m 1
 126 150 l 1
 331 530 l 1
 126 910 l 1
 264 980 l 1
 544 530 l 1
 271 80 l 1
685 80 m 1
 538 150 l 1
 745 530 l 1
 538 910 l 1
 678 980 l 1
 958 530 l 1
 685 80 l 1
EndSplineSet
EndChar

StartChar: guilsinglleft
Encoding: 8249 8249 282
Width: 768
VWidth: 0
Flags: HW
PickledData: "(dp1
S'org.robofab.postScriptHintData'
p2
(dp3
s."
LayerCount: 2
Fore
SplineSet
454 80 m 1
 174 530 l 1
 447 980 l 1
 594 910 l 1
 387 530 l 1
 594 150 l 1
 454 80 l 1
EndSplineSet
EndChar

StartChar: guilsinglright
Encoding: 8250 8250 283
Width: 768
VWidth: 0
Flags: HW
PickledData: "(dp1
S'org.robofab.postScriptHintData'
p2
(dp3
s."
LayerCount: 2
Fore
SplineSet
327 80 m 1
 180 150 l 1
 387 530 l 1
 180 910 l 1
 320 980 l 1
 600 530 l 1
 327 80 l 1
EndSplineSet
EndChar

StartChar: h
Encoding: 104 104 284
Width: 1224
VWidth: 0
Flags: HW
PickledData: "(dp1
S'org.robofab.postScriptHintData'
p2
(dp3
s."
AnchorPoint: "top" 687 1060 basechar 0
AnchorPoint: "mid" 285 1276 basechar 0
LayerCount: 2
Fore
SplineSet
186 0 m 1
 186 1505 l 1
 374 1505 l 1
 374 960 l 1
 436 1032 536 1080 690 1080 c 0
 951 1080 1050 941 1050 773 c 2
 1050 0 l 1
 862 0 l 1
 862 783 l 2
 862 888 773 936 642 936 c 0
 458 936 374 860 374 758 c 2
 374 0 l 1
 186 0 l 1
EndSplineSet
EndChar

StartChar: hbar
Encoding: 295 295 285
Width: 1224
VWidth: 0
Flags: HW
PickledData: "(dp1
S'org.robofab.postScriptHintData'
p2
(dp3
s."
LayerCount: 2
Fore
SplineSet
29 1249 m 1
 844 1249 l 1
 844 1373 l 1
 29 1373 l 1
 29 1249 l 1
EndSplineSet
Refer: 284 104 N 1 0 0 1 0 0 2
EndChar

StartChar: hungarumlaut
Encoding: 733 733 287
Width: 1024
VWidth: 0
Flags: HW
PickledData: "(dp1
S'org.robofab.postScriptHintData'
p2
(dp3
s."
AnchorPoint: "top" 422 1060 mark 0
LayerCount: 2
Fore
SplineSet
164 1293 m 1
 302 1674 l 1
 527 1674 l 1
 292 1293 l 1
 164 1293 l 1
574 1293 m 1
 712 1674 l 1
 937 1674 l 1
 702 1293 l 1
 574 1293 l 1
EndSplineSet
EndChar

StartChar: hyphen
Encoding: 45 45 288
Width: 1024
VWidth: 0
Flags: HW
PickledData: "(dp1
S'org.robofab.postScriptHintData'
p2
(dp3
s."
AnchorPoint: "mid" 508 567 mark 0
LayerCount: 2
Fore
SplineSet
172 499 m 1
 172 642 l 1
 832 642 l 1
 832 499 l 1
 172 499 l 1
EndSplineSet
EndChar

StartChar: infinity
Encoding: 8734 8734 301
Width: 1650
VWidth: 0
Flags: HW
PickledData: "(dp1
S'org.robofab.postScriptHintData'
p2
(dp3
s."
LayerCount: 2
Fore
SplineSet
369 485 m 0
 166 485 64 654 64 822 c 0
 64 990 166 1158 369 1158 c 0
 547 1158 818 933 818 933 c 1
 818 933 1103 1158 1281 1158 c 0
 1483 1158 1586 989 1586 820 c 0
 1586 652 1484 485 1281 485 c 0
 1103 485 818 736 818 736 c 1
 818 736 547 485 369 485 c 0
376 616 m 0
 450 616 717 829 717 829 c 1
 717 829 450 1027 376 1027 c 0
 272 1027 220 924 220 821 c 0
 220 718 272 616 376 616 c 0
1261 616 m 0
 1365 616 1417 718 1417 821 c 0
 1417 924 1365 1027 1261 1027 c 0
 1187 1027 919 826 919 826 c 1
 919 826 1187 616 1261 616 c 0
EndSplineSet
EndChar

StartChar: integral
Encoding: 8747 8747 302
Width: 890
VWidth: 0
Flags: HW
PickledData: "(dp1
S'org.robofab.postScriptHintData'
p2
(dp3
s."
LayerCount: 2
Fore
SplineSet
251 -380 m 0
 218 -380 181 -378 141 -373 c 1
 141 -249 l 1
 158 -251 174 -251 189 -251 c 0
 300 -251 333 -208 333 -127 c 2
 333 1159 l 2
 333 1376 398 1468 606 1468 c 0
 637 1468 672 1466 710 1462 c 1
 710 1338 l 1
 699 1339 690 1339 680 1339 c 0
 542 1339 521 1267 521 1181 c 2
 521 -99 l 2
 521 -288 452 -380 251 -380 c 0
EndSplineSet
EndChar

StartChar: k
Encoding: 107 107 308
Width: 1145
VWidth: 0
Flags: HW
PickledData: "(dp1
S'org.robofab.postScriptHintData'
p2
(dp3
s."
AnchorPoint: "top" 614 1060 basechar 0
AnchorPoint: "bot" 626 0 basechar 0
LayerCount: 2
Fore
SplineSet
186 0 m 1
 186 1506 l 1
 374 1506 l 1
 374 524 l 1
 881 1060 l 1
 1087 1060 l 1
 656 594 l 1
 1130 0 l 1
 913 0 l 1
 533 492 l 1
 374 334 l 1
 374 0 l 1
 186 0 l 1
EndSplineSet
EndChar

StartChar: kgreenlandic
Encoding: 312 312 311
Width: 1148
VWidth: 0
Flags: HW
PickledData: "(dp1
S'org.robofab.postScriptHintData'
p2
(dp3
s."
LayerCount: 2
Fore
SplineSet
186 0 m 1
 186 1060 l 1
 374 1060 l 1
 374 510 l 1
 544 692 702 877 871 1060 c 1
 1079 1060 l 1
 665 583 l 1
 1122 0 l 1
 905 0 l 1
 521 498 l 1
 374 354 l 1
 374 0 l 1
 186 0 l 1
EndSplineSet
EndChar

StartChar: l
Encoding: 108 108 312
Width: 692
VWidth: 0
Flags: HW
PickledData: "(dp1
S'org.robofab.postScriptHintData'
p2
(dp3
s."
AnchorPoint: "top" 301 1506 basechar 0
AnchorPoint: "caron.alt" 234 1060 basechar 0
AnchorPoint: "bot" 380 0 basechar 0
LayerCount: 2
Fore
SplineSet
530 -8 m 2
 298 -8 190 49 190 358 c 2
 190 1505 l 1
 378 1505 l 1
 378 356 l 2
 378 183 416 150 573 150 c 2
 606 150 l 1
 584 -8 l 1
 530 -8 l 2
EndSplineSet
EndChar

StartChar: less
Encoding: 60 60 317
Width: 1250
VWidth: 0
Flags: HW
PickledData: "(dp1
S'org.robofab.postScriptHintData'
p2
(dp3
s."
LayerCount: 2
Fore
SplineSet
1042 0 m 1
 156 471 l 1
 156 672 l 1
 1042 1144 l 1
 1042 941 l 1
 311 573 l 1
 1042 209 l 1
 1042 0 l 1
EndSplineSet
EndChar

StartChar: logicalnot
Encoding: 172 172 320
Width: 864
VWidth: 0
Flags: HW
PickledData: "(dp1
S'org.robofab.postScriptHintData'
p2
(dp3
s."
LayerCount: 2
Fore
SplineSet
589 333 m 1
 589 556 l 1
 98 556 l 1
 98 692 l 1
 721 692 l 1
 721 333 l 1
 589 333 l 1
EndSplineSet
EndChar

StartChar: lozenge
Encoding: 9674 9674 321
Width: 1104
VWidth: 0
Flags: HW
PickledData: "(dp1
S'org.robofab.postScriptHintData'
p2
(dp3
s."
LayerCount: 2
Fore
SplineSet
480 0 m 1
 116 725 l 1
 480 1446 l 1
 650 1446 l 1
 988 725 l 1
 650 0 l 1
 480 0 l 1
567 160 m 1
 814 725 l 1
 567 1276 l 1
 295 725 l 1
 567 160 l 1
EndSplineSet
EndChar

StartChar: lslash
Encoding: 322 322 322
Width: 708
VWidth: 0
Flags: HW
PickledData: "(dp1
S'org.robofab.postScriptHintData'
p2
(dp3
s."
LayerCount: 2
Fore
SplineSet
52 616 m 1
 604 887 l 1
 604 1011 l 1
 52 740 l 1
 52 616 l 1
EndSplineSet
Refer: 312 108 N 1 0 0 1 0 0 2
EndChar

StartChar: m
Encoding: 109 109 323
Width: 1860
VWidth: 0
Flags: HW
PickledData: "(dp1
S'org.robofab.postScriptHintData'
p2
(dp3
s."
AnchorPoint: "top" 994 1060 basechar 0
LayerCount: 2
Fore
SplineSet
186 0 m 1
 186 1060 l 1
 374 1060 l 1
 374 957 l 1
 436 1029 524 1080 678 1080 c 0
 842 1080 939 1024 989 941 c 1
 1082 1031 1182 1080 1336 1080 c 0
 1597 1080 1684 938 1684 770 c 2
 1684 0 l 1
 1496 0 l 1
 1496 781 l 2
 1496 886 1419 936 1288 936 c 0
 1104 936 1032 857 1032 755 c 2
 1032 0 l 1
 844 0 l 1
 844 781 l 2
 844 886 761 936 630 936 c 0
 446 936 374 857 374 755 c 2
 374 0 l 1
 186 0 l 1
EndSplineSet
EndChar

StartChar: macron
Encoding: 175 175 324
Width: 513
VWidth: 0
Flags: HW
PickledData: "(dp1
S'org.robofab.postScriptHintData'
p2
(dp3
s."
AnchorPoint: "top" 257 1060 mark 0
AnchorPoint: "mid" 257 1394 mark 0
LayerCount: 2
Fore
SplineSet
-8 1321 m 1
 -8 1468 l 1
 521 1468 l 1
 521 1321 l 1
 -8 1321 l 1
EndSplineSet
EndChar

StartChar: minus
Encoding: 8722 8722 326
Width: 911
VWidth: 0
Flags: HW
PickledData: "(dp1
S'org.robofab.postScriptHintData'
p2
(dp3
s."
LayerCount: 2
Fore
SplineSet
142 439 m 1
 142 609 l 1
 769 609 l 1
 769 439 l 1
 142 439 l 1
EndSplineSet
EndChar

StartChar: mu
Encoding: 956 956 327
Width: 1224
VWidth: 0
Flags: HW
PickledData: "(dp1
S'org.robofab.postScriptHintData'
p2
(dp3
s."
AnchorPoint: "top" 622 1060 basechar 0
AnchorPoint: "ogonek" 957 0 basechar 0
LayerCount: 2
Fore
SplineSet
848 1060 m 1
 1036 1060 l 1
 1036 0 l 1
 868 0 l 1
 848 133 l 1
 794 38 693 -22 539 -22 c 0
 469 -22 410 -12 362 7 c 1
 362 -383 l 1
 174 -383 l 1
 174 1060 l 1
 362 1060 l 1
 362 289 l 2
 362 184 445 122 576 122 c 0
 760 122 848 220 848 309 c 2
 848 1060 l 1
EndSplineSet
EndChar

StartChar: multiply
Encoding: 215 215 328
Width: 973
VWidth: 0
Flags: HW
PickledData: "(dp1
S'org.robofab.postScriptHintData'
p2
(dp3
s."
LayerCount: 2
Fore
SplineSet
239 216 m 1
 129 344 l 1
 366 576 l 1
 129 806 l 1
 239 937 l 1
 487 694 l 1
 735 937 l 1
 844 806 l 1
 608 576 l 1
 844 344 l 1
 735 216 l 1
 487 458 l 1
 239 216 l 1
EndSplineSet
EndChar

StartChar: n
Encoding: 110 110 329
Width: 1224
VWidth: 0
Flags: HW
PickledData: "(dp1
S'org.robofab.postScriptHintData'
p2
(dp3
s."
AnchorPoint: "top" 684 1060 basechar 0
AnchorPoint: "bot" 613 0 basechar 0
LayerCount: 2
Fore
SplineSet
186 0 m 1
 186 1060 l 1
 374 1060 l 1
 374 957 l 1
 436 1029 534 1080 688 1080 c 0
 949 1080 1050 938 1050 770 c 2
 1050 0 l 1
 862 0 l 1
 862 781 l 2
 862 886 771 936 640 936 c 0
 456 936 374 857 374 755 c 2
 374 0 l 1
 186 0 l 1
EndSplineSet
EndChar

StartChar: nine
Encoding: 57 57 334
Width: 1250
VWidth: 0
Flags: HW
PickledData: "(dp1
S'org.robofab.postScriptHintData'
p2
(dp3
s."
LayerCount: 2
Fore
SplineSet
451 0 m 1
 808 605 l 1
 765 586 690 568 630 568 c 0
 334 568 151 694 151 1024 c 0
 151 1342 361 1468 637 1468 c 0
 913 1468 1106 1340 1106 1020 c 0
 1106 878 1059 718 965 549 c 1
 651 0 l 1
 451 0 l 1
634 731 m 0
 815 731 919 800 919 1021 c 0
 919 1249 815 1306 634 1306 c 0
 454 1306 338 1249 338 1024 c 0
 338 778 455 731 634 731 c 0
EndSplineSet
EndChar

StartChar: notequal
Encoding: 8800 8800 336
Width: 768
VWidth: 0
Flags: HW
PickledData: "(dp1
S'org.robofab.postScriptHintData'
p2
(dp3
s."
LayerCount: 2
Fore
SplineSet
128 205 m 1
 275 205 l 1
 376 467 l 1
 785 467 l 1
 785 615 l 1
 433 615 l 1
 506 805 l 1
 785 805 l 1
 785 953 l 1
 562 953 l 1
 652 1186 l 1
 509 1186 l 1
 419 953 l 1
 -17 953 l 1
 -17 805 l 1
 361 805 l 1
 287 615 l 1
 -17 615 l 1
 -17 467 l 1
 230 467 l 1
 128 205 l 1
EndSplineSet
EndChar

StartChar: numbersign
Encoding: 35 35 338
Width: 1284
VWidth: 0
Flags: HW
PickledData: "(dp1
S'org.robofab.postScriptHintData'
p2
(dp3
s."
LayerCount: 2
Fore
SplineSet
180 0 m 1
 267 475 l 1
 86 475 l 1
 86 594 l 1
 289 594 l 1
 346 910 l 1
 110 910 l 1
 110 1029 l 1
 368 1029 l 1
 444 1446 l 1
 614 1446 l 1
 540 1029 l 1
 841 1029 l 1
 917 1446 l 1
 1087 1446 l 1
 1013 1029 l 1
 1198 1029 l 1
 1198 910 l 1
 992 910 l 1
 936 594 l 1
 1174 594 l 1
 1174 475 l 1
 915 475 l 1
 831 0 l 1
 653 0 l 1
 740 475 l 1
 442 475 l 1
 358 0 l 1
 180 0 l 1
463 594 m 1
 762 594 l 1
 819 910 l 1
 519 910 l 1
 463 594 l 1
EndSplineSet
EndChar

StartChar: o
Encoding: 111 111 339
Width: 1174
VWidth: 0
Flags: HW
PickledData: "(dp1
S'org.robofab.postScriptHintData'
p2
(dp3
s."
AnchorPoint: "top" 585 1060 basechar 0
AnchorPoint: "ogonek" 635 0 basechar 0
AnchorPoint: "bot" 594 0 basechar 0
LayerCount: 2
Fore
SplineSet
587 122 m 0
 734 122 838 168 838 299 c 2
 838 758 l 2
 838 889 734 936 587 936 c 0
 437 936 336 889 336 758 c 2
 336 299 l 2
 336 168 437 122 587 122 c 0
587 -22 m 0
 268 -22 148 119 148 315 c 2
 148 742 l 2
 148 938 268 1080 587 1080 c 0
 903 1080 1026 938 1026 742 c 2
 1026 315 l 2
 1026 119 903 -22 587 -22 c 0
EndSplineSet
Substitution2: "Single Substitution lookup 15 subtable" ordmasculine
EndChar

StartChar: oe
Encoding: 339 339 346
Width: 1734
VWidth: 0
Flags: HW
PickledData: "(dp1
S'org.robofab.postScriptHintData'
p2
(dp3
s."
AnchorPoint: "top" 867 0 basechar 0
LayerCount: 2
Fore
SplineSet
569 -20 m 0
 253 -20 150 121 150 317 c 2
 150 747 l 2
 150 947 306 1080 569 1080 c 0
 707 1080 813 1043 883 950 c 1
 949 1043 1053 1080 1198 1080 c 0
 1474 1080 1604 959 1604 758 c 2
 1604 506 l 1
 979 506 l 1
 979 328 l 2
 979 186 1051 121 1198 121 c 0
 1364 121 1420 148 1433 331 c 1
 1603 331 l 1
 1582 73 1488 -20 1198 -20 c 0
 1054 -20 947 35 883 122 c 1
 822 34 730 -20 569 -20 c 0
569 121 m 0
 708 121 791 171 791 301 c 2
 791 763 l 2
 791 888 714 938 569 938 c 0
 430 938 338 894 338 763 c 2
 338 301 l 2
 338 170 422 121 569 121 c 0
979 633 m 1
 1422 633 l 1
 1422 778 l 2
 1422 906 1343 938 1198 938 c 0
 1048 938 979 891 979 760 c 2
 979 633 l 1
EndSplineSet
EndChar

StartChar: ogonek
Encoding: 731 731 347
Width: 513
VWidth: 0
Flags: HW
PickledData: "(dp1
S'org.robofab.postScriptHintData'
p2
(dp3
s."
AnchorPoint: "ogonek" 322 0 mark 0
LayerCount: 2
Fore
SplineSet
407 -476 m 1
 228 -476 114 -400 114 -281 c 0
 114 -201 166 -100 296 10 c 1
 358 10 l 1
 291 -54 238 -160 238 -245 c 0
 238 -320 280 -379 407 -379 c 1
 407 -476 l 1
EndSplineSet
EndChar

StartChar: one
Encoding: 49 49 352
Width: 1250
VWidth: 0
Flags: HW
PickledData: "(dp1
S'org.robofab.postScriptHintData'
p2
(dp3
s."
LayerCount: 2
Fore
SplineSet
206 0 m 1
 206 155 l 1
 607 155 l 1
 607 1277 l 1
 233 1237 l 1
 215 1396 l 1
 644 1446 l 1
 808 1446 l 1
 808 155 l 1
 1162 155 l 1
 1162 0 l 1
 206 0 l 1
EndSplineSet
Substitution2: "'sups' Superscript lookup 11 subtable" onesuperior
EndChar

StartChar: onehalf
Encoding: 189 189 353
Width: 2047
VWidth: 0
Flags: HW
PickledData: "(dp1
S'org.robofab.postScriptHintData'
p2
(dp3
s."
LayerCount: 2
Fore
SplineSet
1371 2 m 1
 1360 94 l 1
 1643 413 l 1
 1727 503 1762 542 1762 624 c 0
 1762 719 1719 765 1616 765 c 0
 1494 765 1449 741 1449 605 c 1
 1332 605 l 1
 1332 789 1445 867 1614 867 c 0
 1795 867 1879 758 1879 625 c 0
 1879 495 1807 431 1725 339 c 2
 1512 101 l 1
 1883 101 l 1
 1883 2 l 1
 1371 2 l 1
164 654 m 1
 164 755 l 1
 438 755 l 1
 438 1394 l 1
 182 1368 l 1
 170 1472 l 1
 462 1505 l 1
 569 1505 l 1
 569 755 l 1
 800 755 l 1
 800 654 l 1
 164 654 l 1
687 0 m 1
 1371 1446 l 1
 1497 1446 l 1
 819 0 l 1
 687 0 l 1
EndSplineSet
Ligature2: "'frac' Diagonal Fractions lookup 12 subtable" one slash two
EndChar

StartChar: onequarter
Encoding: 188 188 354
Width: 2047
VWidth: 0
Flags: HW
PickledData: "(dp1
S'org.robofab.postScriptHintData'
p2
(dp3
s."
LayerCount: 2
Fore
SplineSet
1655 0 m 1
 1655 207 l 1
 1221 207 l 1
 1221 299 l 1
 1580 892 l 1
 1721 892 l 1
 1373 298 l 1
 1655 298 l 1
 1655 533 l 1
 1768 533 l 1
 1768 298 l 1
 1912 298 l 1
 1912 207 l 1
 1768 207 l 1
 1768 0 l 1
 1655 0 l 1
164 654 m 1
 164 755 l 1
 438 755 l 1
 438 1394 l 1
 182 1368 l 1
 170 1472 l 1
 462 1505 l 1
 569 1505 l 1
 569 755 l 1
 800 755 l 1
 800 654 l 1
 164 654 l 1
687 0 m 1
 1371 1446 l 1
 1497 1446 l 1
 819 0 l 1
 687 0 l 1
EndSplineSet
Ligature2: "'frac' Diagonal Fractions lookup 12 subtable" one slash four
EndChar

StartChar: onesuperior
Encoding: 185 185 355
Width: 1050
VWidth: 0
Flags: HW
PickledData: "(dp1
S'org.robofab.postScriptHintData'
p2
(dp3
s."
LayerCount: 2
Fore
SplineSet
207 694 m 1
 207 795 l 1
 481 795 l 1
 481 1434 l 1
 225 1408 l 1
 213 1512 l 1
 505 1545 l 1
 612 1545 l 1
 612 795 l 1
 843 795 l 1
 843 694 l 1
 207 694 l 1
EndSplineSet
EndChar

StartChar: oslash
Encoding: 248 248 359
Width: 1174
VWidth: 0
Flags: HW
PickledData: "(dp1
S'org.robofab.postScriptHintData'
p2
(dp3
s."
AnchorPoint: "top" 587 1060 basechar 0
LayerCount: 2
Fore
SplineSet
690 926 m 1
 404 162 l 1
 361 190 336 234 336 299 c 2
 336 758 l 2
 336 889 437 936 587 936 c 0
 624 936 659 933 690 926 c 1
778 889 m 1
 816 861 838 818 838 758 c 2
 838 299 l 2
 838 168 734 122 587 122 c 0
 554 122 523 124 495 129 c 1
 778 889 l 1
587 -22 m 0
 903 -22 1026 119 1026 315 c 2
 1026 742 l 2
 1026 875 970 983 834 1039 c 1
 901 1220 l 1
 811 1251 l 1
 742 1066 l 1
 697 1075 645 1080 587 1080 c 0
 268 1080 148 938 148 742 c 2
 148 315 l 2
 148 179 206 69 349 15 c 1
 271 -195 l 1
 363 -226 l 1
 443 -11 l 1
 486 -18 534 -22 587 -22 c 0
EndSplineSet
EndChar

StartChar: p
Encoding: 112 112 362
Width: 1198
VWidth: 0
Flags: HW
PickledData: "(dp1
S'org.robofab.postScriptHintData'
p2
(dp3
s."
AnchorPoint: "top" 648 1060 basechar 0
LayerCount: 2
Fore
SplineSet
186 -408 m 1
 186 1060 l 1
 334 1060 l 1
 356 980 l 1
 412 1030 527 1080 648 1080 c 0
 919 1080 1050 933 1050 729 c 2
 1050 344 l 2
 1050 131 900 -22 624 -22 c 0
 505 -22 425 8 374 34 c 1
 374 -408 l 1
 186 -408 l 1
612 122 m 0
 760 122 862 194 862 324 c 2
 862 744 l 2
 862 871 757 936 619 936 c 0
 486 936 391 850 374 824 c 1
 374 179 l 1
 422 152 503 122 612 122 c 0
EndSplineSet
EndChar

StartChar: paragraph
Encoding: 182 182 363
Width: 1250
VWidth: 0
Flags: HW
PickledData: "(dp1
S'org.robofab.postScriptHintData'
p2
(dp3
s."
LayerCount: 2
Fore
SplineSet
536 -210 m 1
 536 870 l 1
 364 874 168 976 168 1156 c 0
 168 1372 378 1446 572 1446 c 2
 961 1446 l 1
 961 -210 l 1
 825 -210 l 1
 825 1338 l 1
 686 1338 l 1
 686 -210 l 1
 536 -210 l 1
EndSplineSet
EndChar

StartChar: parenleft
Encoding: 40 40 364
Width: 768
VWidth: 0
Flags: HW
PickledData: "(dp1
S'org.robofab.postScriptHintData'
p2
(dp3
s."
LayerCount: 2
Fore
SplineSet
644 -150 m 1
 174 -150 172 139 172 440 c 2
 172 959 l 2
 172 1265 174 1567 644 1567 c 1
 644 1416 l 1
 366 1416 364 1253 364 996 c 2
 364 409 l 2
 364 153 366 0 644 0 c 1
 644 -150 l 1
EndSplineSet
EndChar

StartChar: parenright
Encoding: 41 41 365
Width: 768
VWidth: 0
Flags: HW
PickledData: "(dp1
S'org.robofab.postScriptHintData'
p2
(dp3
s."
LayerCount: 2
Fore
SplineSet
124 -150 m 1
 124 1 l 1
 402 1 404 164 404 421 c 2
 404 1008 l 2
 404 1264 402 1417 124 1417 c 1
 124 1567 l 1
 594 1567 596 1278 596 977 c 2
 596 458 l 2
 596 152 594 -150 124 -150 c 1
EndSplineSet
EndChar

StartChar: partialdiff
Encoding: 8706 8706 366
Width: 1202
VWidth: 0
Flags: HW
PickledData: "(dp1
S'org.robofab.postScriptHintData'
p2
(dp3
s."
LayerCount: 2
Fore
SplineSet
469 -20 m 0
 254 -20 152 121 152 294 c 0
 152 568 406 924 862 931 c 1
 863 944 863 957 863 969 c 0
 863 1273 694 1407 496 1407 c 0
 422 1407 345 1389 271 1354 c 1
 246 1415 l 1
 356 1475 471 1507 580 1507 c 0
 838 1507 1056 1325 1056 913 c 0
 1056 385 821 -20 469 -20 c 0
483 98 m 0
 725 98 836 542 856 828 c 1
 540 808 372 475 372 266 c 0
 372 169 409 98 483 98 c 0
EndSplineSet
EndChar

StartChar: percent
Encoding: 37 37 368
Width: 2048
VWidth: 0
Flags: HW
PickledData: "(dp1
S'org.robofab.postScriptHintData'
p2
(dp3
s."
LayerCount: 2
Fore
SplineSet
470 794 m 0
 608 794 627 899 627 1040 c 2
 627 1133 l 2
 627 1271 614 1365 470 1365 c 0
 327 1365 315 1271 315 1135 c 2
 315 1040 l 2
 315 899 332 794 470 794 c 0
470 678 m 0
 240 678 172 829 172 1057 c 2
 172 1110 l 2
 172 1343 239 1481 470 1481 c 0
 700 1481 770 1344 772 1111 c 1
 772 1057 l 2
 772 828 700 678 470 678 c 0
1574 97 m 0
 1712 97 1731 202 1731 343 c 2
 1731 436 l 2
 1731 574 1718 668 1574 668 c 0
 1431 668 1419 574 1419 438 c 2
 1419 343 l 2
 1419 202 1436 97 1574 97 c 0
1574 -19 m 0
 1344 -19 1276 132 1276 360 c 2
 1276 413 l 2
 1276 646 1343 784 1574 784 c 0
 1804 784 1874 647 1876 414 c 1
 1876 360 l 2
 1876 131 1804 -19 1574 -19 c 0
668 0 m 1
 1211 1446 l 1
 1360 1446 l 1
 822 0 l 1
 668 0 l 1
EndSplineSet
EndChar

StartChar: period
Encoding: 46 46 369
Width: 628
VWidth: 0
Flags: HW
PickledData: "(dp1
S'org.robofab.postScriptHintData'
p2
(dp3
s."
LayerCount: 2
Fore
SplineSet
186 0 m 1
 186 242 l 1
 442 242 l 1
 442 0 l 1
 186 0 l 1
EndSplineSet
EndChar

StartChar: periodcentered
Encoding: 183 183 370
Width: 734
VWidth: 0
Flags: HW
PickledData: "(dp1
S'org.robofab.postScriptHintData'
p2
(dp3
s."
AnchorPoint: "mid" 105 714 mark 0
LayerCount: 2
Fore
SplineSet
429 622 m 1
 429 828 l 1
 634 828 l 1
 634 622 l 1
 429 622 l 1
EndSplineSet
EndChar

StartChar: perthousand
Encoding: 8240 8240 371
Width: 2886
VWidth: 0
Flags: HW
PickledData: "(dp1
S'org.robofab.postScriptHintData'
p2
(dp3
s."
LayerCount: 2
Fore
SplineSet
507 774 m 0
 645 774 664 879 664 1020 c 2
 664 1113 l 2
 664 1251 651 1345 507 1345 c 0
 364 1345 352 1251 352 1115 c 2
 352 1020 l 2
 352 879 369 774 507 774 c 0
507 658 m 0
 277 658 209 809 209 1037 c 2
 209 1090 l 2
 209 1323 276 1461 507 1461 c 0
 737 1461 807 1324 809 1091 c 1
 809 1037 l 2
 809 808 737 658 507 658 c 0
1611 97 m 0
 1749 97 1768 202 1768 343 c 2
 1768 436 l 2
 1768 574 1755 668 1611 668 c 0
 1468 668 1456 574 1456 438 c 2
 1456 343 l 2
 1456 202 1473 97 1611 97 c 0
1611 -19 m 0
 1381 -19 1313 132 1313 360 c 2
 1313 413 l 2
 1313 646 1380 784 1611 784 c 0
 1841 784 1911 647 1913 414 c 1
 1913 360 l 2
 1913 131 1841 -19 1611 -19 c 0
2390 97 m 0
 2528 97 2547 202 2547 343 c 2
 2547 436 l 2
 2547 574 2534 668 2390 668 c 0
 2247 668 2235 574 2235 438 c 2
 2235 343 l 2
 2235 202 2252 97 2390 97 c 0
2390 -19 m 0
 2160 -19 2092 132 2092 360 c 2
 2092 413 l 2
 2092 646 2159 784 2390 784 c 0
 2620 784 2690 647 2692 414 c 1
 2692 360 l 2
 2692 131 2620 -19 2390 -19 c 0
705 0 m 1
 1248 1446 l 1
 1397 1446 l 1
 859 0 l 1
 705 0 l 1
EndSplineSet
EndChar

StartChar: pi
Encoding: 960 960 372
Width: 1180
VWidth: 0
Flags: HW
PickledData: "(dp1
S'org.robofab.postScriptHintData'
p2
(dp3
s."
LayerCount: 2
Fore
SplineSet
31 875 m 1
 31 1000 l 1
 31 1000 97 1060 218 1060 c 2
 1115 1060 l 1
 1115 935 l 1
 933 935 l 1
 933 333 l 2
 933 167 956 154 1092 124 c 1
 1044 -22 l 1
 839 -21 745 31 745 267 c 2
 745 935 l 1
 439 935 l 1
 439 0 l 1
 251 0 l 1
 251 935 l 1
 138 935 31 875 31 875 c 1
EndSplineSet
EndChar

StartChar: plus
Encoding: 43 43 373
Width: 1024
VWidth: 0
Flags: HW
PickledData: "(dp1
S'org.robofab.postScriptHintData'
p2
(dp3
s."
LayerCount: 2
Fore
SplineSet
437 156 m 1
 437 494 l 1
 162 494 l 1
 162 642 l 1
 437 642 l 1
 437 968 l 1
 588 968 l 1
 588 642 l 1
 862 642 l 1
 862 494 l 1
 588 494 l 1
 588 156 l 1
 437 156 l 1
EndSplineSet
EndChar

StartChar: plusminus
Encoding: 177 177 374
Width: 1041
VWidth: 0
Flags: HW
PickledData: "(dp1
S'org.robofab.postScriptHintData'
p2
(dp3
s."
LayerCount: 2
Fore
SplineSet
460 334 m 1
 460 611 l 1
 207 611 l 1
 207 726 l 1
 460 726 l 1
 460 992 l 1
 581 992 l 1
 581 726 l 1
 834 726 l 1
 834 611 l 1
 581 611 l 1
 581 334 l 1
 460 334 l 1
207 0 m 1
 207 120 l 1
 834 120 l 1
 834 0 l 1
 207 0 l 1
EndSplineSet
EndChar

StartChar: product
Encoding: 8719 8719 375
Width: 1792
VWidth: 0
Flags: HW
PickledData: "(dp1
S'org.robofab.postScriptHintData'
p2
(dp3
s."
LayerCount: 2
Fore
SplineSet
660 319 m 1
 660 1153 l 1
 982 1153 l 2
 1139 1153 1241 1082 1245 908 c 1
 1245 894 l 2
 1245 760 1189 652 969 652 c 2
 791 652 l 1
 791 319 l 1
 660 319 l 1
791 742 m 1
 977 742 l 2
 1091 742 1112 814 1113 877 c 1
 1113 901 l 2
 1113 960 1104 1062 986 1062 c 2
 791 1062 l 1
 791 742 l 1
898 82 m 0
 1264 82 1526 357 1526 722 c 0
 1526 1086 1264 1361 898 1361 c 0
 534 1361 269 1086 269 722 c 0
 269 357 534 82 898 82 c 0
896 -14 m 0
 483 -14 160 303 160 722 c 0
 160 1139 483 1456 896 1456 c 0
 1312 1456 1632 1139 1632 722 c 0
 1632 303 1312 -14 896 -14 c 0
EndSplineSet
EndChar

StartChar: q
Encoding: 113 113 376
Width: 1200
VWidth: 0
Flags: HW
PickledData: "(dp1
S'org.robofab.postScriptHintData'
p2
(dp3
s."
LayerCount: 2
Fore
SplineSet
826 -408 m 1
 826 47 l 1
 761 -3 646 -22 573 -22 c 0
 302 -22 148 110 148 314 c 2
 148 728 l 2
 148 941 284 1080 560 1080 c 0
 668 1080 796 1025 826 975 c 1
 826 1060 l 1
 1014 1060 l 1
 1014 -408 l 1
 826 -408 l 1
585 122 m 0
 725 122 816 180 826 201 c 1
 826 810 l 2
 826 869 755 936 588 936 c 0
 440 936 336 878 336 748 c 2
 336 284 l 2
 336 157 447 122 585 122 c 0
EndSplineSet
EndChar

StartChar: question
Encoding: 63 63 377
Width: 1240
VWidth: 0
Flags: HW
PickledData: "(dp1
S'org.robofab.postScriptHintData'
p2
(dp3
s."
LayerCount: 2
Fore
SplineSet
466 431 m 1
 740 795 l 2
 825 909 883 986 883 1103 c 0
 883 1222 836 1306 657 1306 c 0
 441 1306 376 1225 376 1092 c 2
 376 1039 l 1
 179 1039 l 1
 179 1071 l 2
 179 1374 316 1468 657 1468 c 0
 1005 1468 1096 1277 1096 1114 c 0
 1096 931 989 814 834 650 c 2
 626 431 l 1
 466 431 l 1
440 0 m 1
 440 206 l 1
 644 206 l 1
 644 0 l 1
 440 0 l 1
EndSplineSet
EndChar

StartChar: quotedbl
Encoding: 34 34 379
Width: 890
VWidth: 0
Flags: HW
PickledData: "(dp1
S'org.robofab.postScriptHintData'
p2
(dp3
s."
LayerCount: 2
Fore
SplineSet
220 930 m 1
 176 1506 l 1
 381 1506 l 1
 332 930 l 1
 220 930 l 1
553 930 m 1
 509 1506 l 1
 714 1506 l 1
 665 930 l 1
 553 930 l 1
EndSplineSet
EndChar

StartChar: quotedblbase
Encoding: 8222 8222 380
Width: 1181
VWidth: 0
Flags: HW
PickledData: "(dp1
S'org.robofab.postScriptHintData'
p2
(dp3
s."
LayerCount: 2
Fore
SplineSet
689 -338 m 1
 608 -294 l 1
 655 -239 745 -132 745 0 c 1
 604 0 l 1
 604 233 l 1
 861 233 l 1
 861 50 l 2
 861 -141 747 -284 689 -338 c 1
277 -338 m 1
 196 -294 l 1
 243 -239 333 -132 333 0 c 1
 192 0 l 1
 192 233 l 1
 449 233 l 1
 449 50 l 2
 449 -141 335 -284 277 -338 c 1
EndSplineSet
EndChar

StartChar: quotedblleft
Encoding: 8220 8220 381
Width: 1181
VWidth: 0
Flags: HW
PickledData: "(dp1
S'org.robofab.postScriptHintData'
p2
(dp3
s."
LayerCount: 2
Fore
SplineSet
492 1468 m 1
 573 1424 l 1
 526 1369 436 1262 436 1130 c 1
 577 1130 l 1
 577 897 l 1
 320 897 l 1
 320 1080 l 2
 320 1271 434 1414 492 1468 c 1
904 1468 m 1
 985 1424 l 1
 938 1369 848 1262 848 1130 c 1
 989 1130 l 1
 989 897 l 1
 732 897 l 1
 732 1080 l 2
 732 1271 846 1414 904 1468 c 1
EndSplineSet
EndChar

StartChar: quotedblright
Encoding: 8221 8221 382
Width: 1181
VWidth: 0
Flags: HW
PickledData: "(dp1
S'org.robofab.postScriptHintData'
p2
(dp3
s."
LayerCount: 2
Fore
SplineSet
277 897 m 1
 196 941 l 1
 243 996 333 1103 333 1235 c 1
 192 1235 l 1
 192 1468 l 1
 449 1468 l 1
 449 1285 l 2
 449 1094 335 951 277 897 c 1
689 897 m 1
 608 941 l 1
 655 996 745 1103 745 1235 c 1
 604 1235 l 1
 604 1468 l 1
 861 1468 l 1
 861 1285 l 2
 861 1094 747 951 689 897 c 1
EndSplineSet
EndChar

StartChar: quoteleft
Encoding: 8216 8216 383
Width: 769
VWidth: 0
Flags: HW
PickledData: "(dp1
S'org.robofab.postScriptHintData'
p2
(dp3
s."
LayerCount: 2
Fore
SplineSet
492 1468 m 1
 573 1424 l 1
 526 1369 436 1262 436 1130 c 1
 577 1130 l 1
 577 897 l 1
 320 897 l 1
 320 1080 l 2
 320 1271 434 1414 492 1468 c 1
EndSplineSet
EndChar

StartChar: quoteright
Encoding: 8217 8217 384
Width: 769
VWidth: 0
Flags: HW
PickledData: "(dp1
S'org.robofab.postScriptHintData'
p2
(dp3
s."
LayerCount: 2
Fore
SplineSet
277 897 m 1
 196 941 l 1
 243 996 333 1103 333 1235 c 1
 192 1235 l 1
 192 1468 l 1
 449 1468 l 1
 449 1285 l 2
 449 1094 335 951 277 897 c 1
EndSplineSet
EndChar

StartChar: quotesinglbase
Encoding: 8218 8218 385
Width: 769
VWidth: 0
Flags: HW
PickledData: "(dp1
S'org.robofab.postScriptHintData'
p2
(dp3
s."
LayerCount: 2
Fore
SplineSet
277 -338 m 1
 196 -294 l 1
 243 -239 333 -132 333 0 c 1
 192 0 l 1
 192 233 l 1
 449 233 l 1
 449 50 l 2
 449 -141 335 -284 277 -338 c 1
EndSplineSet
EndChar

StartChar: quotesingle
Encoding: 39 39 386
Width: 896
VWidth: 0
Flags: HW
PickledData: "(dp1
S'org.robofab.postScriptHintData'
p2
(dp3
s."
LayerCount: 2
Fore
SplineSet
223 930 m 1
 179 1506 l 1
 384 1506 l 1
 335 930 l 1
 223 930 l 1
EndSplineSet
EndChar

StartChar: r
Encoding: 114 114 387
Width: 798
VWidth: 0
Flags: HW
PickledData: "(dp1
S'org.robofab.postScriptHintData'
p2
(dp3
s."
AnchorPoint: "top" 477 1060 basechar 0
AnchorPoint: "bot" 286 0 basechar 0
LayerCount: 2
Fore
SplineSet
186 0 m 1
 186 1060 l 1
 374 1060 l 1
 374 890 l 1
 425 1027 602 1075 742 1075 c 1
 736 914 l 1
 555 914 374 828 374 722 c 2
 374 0 l 1
 186 0 l 1
EndSplineSet
EndChar

StartChar: radical
Encoding: 8730 8730 389
Width: 1249
VWidth: 0
Flags: HW
PickledData: "(dp1
S'org.robofab.postScriptHintData'
p2
(dp3
s."
LayerCount: 2
Fore
SplineSet
98 442 m 1
 98 553 l 1
 359 553 l 1
 544 159 l 1
 1102 1506 l 1
 1238 1506 l 1
 624 0 l 1
 447 0 l 1
 217 442 l 1
 98 442 l 1
EndSplineSet
EndChar

StartChar: registered
Encoding: 174 174 393
Width: 1784
VWidth: 0
Flags: HW
PickledData: "(dp1
S'org.robofab.postScriptHintData'
p2
(dp3
s."
LayerCount: 2
Fore
SplineSet
596 319 m 1
 596 1153 l 1
 999 1153 l 2
 1156 1153 1258 1082 1262 908 c 1
 1262 894 l 2
 1262 760 1202 691 1110 666 c 1
 1294 319 l 1
 1166 319 l 1
 986 652 l 1
 727 652 l 1
 727 319 l 1
 596 319 l 1
727 742 m 1
 994 742 l 2
 1108 742 1129 814 1130 877 c 1
 1130 901 l 2
 1130 960 1121 1062 1003 1062 c 2
 727 1062 l 1
 727 742 l 1
894 82 m 0
 1260 82 1522 357 1522 722 c 0
 1522 1086 1260 1361 894 1361 c 0
 530 1361 265 1086 265 722 c 0
 265 357 530 82 894 82 c 0
892 -14 m 0
 479 -14 156 303 156 722 c 0
 156 1139 479 1456 892 1456 c 0
 1308 1456 1628 1139 1628 722 c 0
 1628 303 1308 -14 892 -14 c 0
EndSplineSet
EndChar

StartChar: ring
Encoding: 730 730 394
Width: 512
VWidth: 0
Flags: HW
PickledData: "(dp1
S'org.robofab.postScriptHintData'
p2
(dp3
s."
AnchorPoint: "top" 256 1060 mark 0
LayerCount: 2
Fore
SplineSet
256 1233 m 0
 313 1233 365 1258 365 1345 c 0
 365 1432 314 1459 256 1459 c 0
 200 1459 147 1434 147 1347 c 0
 147 1259 199 1233 256 1233 c 0
256 1168 m 0
 156 1168 62 1223 62 1346 c 0
 62 1469 156 1524 256 1524 c 0
 356 1524 450 1469 450 1346 c 0
 450 1223 356 1168 256 1168 c 0
EndSplineSet
EndChar

StartChar: s
Encoding: 115 115 396
Width: 982
VWidth: 0
Flags: HW
PickledData: "(dp1
S'org.robofab.postScriptHintData'
p2
(dp3
sS'com.typemytype.robofont.layerData'
p4
(dp5
s."
AnchorPoint: "top" 520 1060 basechar 0
AnchorPoint: "bot" 515 0 basechar 0
LayerCount: 2
Fore
SplineSet
524 -22 m 0
 326 -22 186 37 138 64 c 1
 184 202 l 1
 231 176 355 122 499 122 c 0
 666 122 712 192 712 281 c 0
 712 363 704 406 604 443 c 2
 352 536 l 1
 197 590 145 658 145 790 c 0
 145 969 227 1080 489 1080 c 0
 638 1080 768 1053 846 1022 c 1
 803 878 l 1
 742 903 613 936 524 936 c 0
 352 936 320 895 320 799 c 0
 320 733 338 709 411 683 c 1
 660 585 l 2
 838 515 872 448 872 283 c 0
 872 116 776 -22 524 -22 c 0
EndSplineSet
EndChar

StartChar: section
Encoding: 167 167 403
Width: 1002
VWidth: 0
Flags: HW
PickledData: "(dp1
S'org.robofab.postScriptHintData'
p2
(dp3
s."
LayerCount: 2
Fore
SplineSet
144 64 m 1
 191 202 l 1
 240 176 368 122 516 122 c 0
 688 122 736 192 736 281 c 0
 736 363 727 406 624 443 c 2
 365 536 l 2
 205 593 151 658 151 792 c 0
 151 880 170 946 223 997 c 1
 171 1041 151 1097 151 1178 c 0
 151 1358 236 1468 506 1468 c 0
 659 1468 793 1441 874 1410 c 1
 829 1266 l 1
 766 1291 633 1324 542 1324 c 0
 363 1324 332 1283 332 1184 c 0
 332 1121 352 1099 425 1071 c 2
 682 973 l 2
 865 903 900 836 900 671 c 0
 900 602 883 539 846 487 c 1
 889 439 900 376 900 283 c 0
 900 116 801 -22 542 -22 c 0
 338 -22 194 37 144 64 c 1
716 571 m 1
 730 602 736 637 736 669 c 0
 736 751 727 794 624 831 c 2
 365 924 l 1
 354 924 332 849 332 806 c 0
 332 742 352 711 425 683 c 2
 716 571 l 1
EndSplineSet
EndChar

StartChar: seven
Encoding: 55 55 405
Width: 1250
VWidth: 0
Flags: HW
PickledData: "(dp1
S'org.robofab.postScriptHintData'
p2
(dp3
s."
LayerCount: 2
Fore
SplineSet
369 0 m 1
 869 1291 l 1
 189 1291 l 1
 189 1446 l 1
 1070 1446 l 1
 1070 1289 l 1
 580 0 l 1
 369 0 l 1
EndSplineSet
EndChar

StartChar: six
Encoding: 54 54 406
Width: 1250
VWidth: 0
Flags: HW
PickledData: "(dp1
S'org.robofab.postScriptHintData'
p2
(dp3
s."
LayerCount: 2
Fore
SplineSet
647 -22 m 0
 371 -22 178 106 178 426 c 0
 178 568 225 728 319 897 c 1
 633 1446 l 1
 833 1446 l 1
 476 841 l 1
 519 860 594 878 654 878 c 0
 950 878 1132 752 1132 422 c 0
 1132 104 923 -22 647 -22 c 0
650 140 m 0
 830 140 945 197 945 422 c 0
 945 668 829 715 650 715 c 0
 469 715 365 646 365 425 c 0
 365 197 469 140 650 140 c 0
EndSplineSet
EndChar

StartChar: slash
Encoding: 47 47 407
Width: 768
VWidth: 0
Flags: HW
PickledData: "(dp1
S'org.robofab.postScriptHintData'
p2
(dp3
s."
LayerCount: 2
Fore
SplineSet
64 0 m 1
 521 1506 l 1
 704 1506 l 1
 251 0 l 1
 64 0 l 1
EndSplineSet
EndChar

StartChar: sterling
Encoding: 163 163 409
Width: 1273
VWidth: 0
Flags: HW
PickledData: "(dp1
S'org.robofab.postScriptHintData'
p2
(dp3
s."
LayerCount: 2
Fore
SplineSet
261 0 m 1
 323 668 l 1
 166 668 l 1
 166 809 l 1
 336 809 l 1
 367 1125 l 1
 385 1319 514 1484 748 1484 c 0
 841 1484 951 1459 1077 1398 c 1
 1023 1259 l 1
 984 1278 871 1327 770 1327 c 0
 666 1327 577 1275 559 1104 c 2
 529 809 l 1
 1012 809 l 1
 1012 668 l 1
 514 668 l 1
 462 162 l 1
 1036 162 l 1
 1036 0 l 1
 261 0 l 1
EndSplineSet
EndChar

StartChar: summation
Encoding: 8721 8721 410
Width: 1123
VWidth: 0
Flags: HW
PickledData: "(dp1
S'org.robofab.postScriptHintData'
p2
(dp3
s."
LayerCount: 2
Fore
SplineSet
1076 0 m 1
 112 0 l 1
 112 155 l 1
 597 762 l 1
 112 1298 l 1
 112 1446 l 1
 1076 1446 l 1
 1076 1286 l 1
 317 1286 l 1
 777 807 l 1
 777 738 l 1
 321 162 l 1
 1076 162 l 1
 1076 0 l 1
EndSplineSet
EndChar

StartChar: t
Encoding: 116 116 411
Width: 832
VWidth: 0
Flags: HW
PickledData: "(dp1
S'org.robofab.postScriptHintData'
p2
(dp3
s."
AnchorPoint: "bot" 453 32 basechar 0
AnchorPoint: "top" 446 1280 basechar 0
AnchorPoint: "mid" 378 597 basechar 0
AnchorPoint: "caron.alt" 248 1060 basechar 0
LayerCount: 2
Fore
SplineSet
676 -8 m 2
 386 -8 257 70 257 303 c 2
 257 918 l 1
 80 918 l 1
 80 1060 l 1
 264 1060 l 1
 287 1388 l 1
 445 1388 l 1
 445 1060 l 1
 711 1060 l 1
 711 918 l 1
 445 918 l 1
 445 315 l 2
 445 175 524 150 703 150 c 2
 724 150 l 1
 704 -8 l 1
 676 -8 l 2
EndSplineSet
EndChar

StartChar: thorn
Encoding: 254 254 416
Width: 1194
VWidth: 0
Flags: HW
PickledData: "(dp1
S'org.robofab.postScriptHintData'
p2
(dp3
s."
LayerCount: 2
Fore
SplineSet
177 -408 m 1
 179 1506 l 1
 365 1506 l 1
 365 994 l 1
 425 1039 530 1076 639 1076 c 0
 910 1076 1044 933 1044 729 c 2
 1044 344 l 2
 1044 131 891 -24 615 -24 c 0
 496 -24 416 8 365 34 c 1
 365 -408 l 1
 177 -408 l 1
603 117 m 0
 751 117 856 194 856 324 c 2
 856 742 l 2
 856 869 748 934 610 934 c 0
 477 934 382 850 365 824 c 1
 365 179 l 1
 413 152 494 117 603 117 c 0
EndSplineSet
EndChar

StartChar: three
Encoding: 51 51 417
Width: 1250
VWidth: 0
Flags: HW
PickledData: "(dp1
S'org.robofab.postScriptHintData'
p2
(dp3
s."
LayerCount: 2
Fore
SplineSet
679 -22 m 0
 357 -22 242 91 208 431 c 1
 400 431 l 1
 416 189 491 140 690 140 c 0
 863 140 935 230 935 399 c 0
 935 622 887 691 587 691 c 1
 587 840 l 1
 896 840 909 924 909 1088 c 0
 909 1224 848 1306 676 1306 c 0
 498 1306 410 1273 410 1025 c 1
 218 1025 l 1
 218 1393 418 1468 675 1468 c 0
 924 1468 1097 1354 1097 1091 c 0
 1097 901 1033 795 865 768 c 1
 1030 734 1126 642 1126 398 c 0
 1126 122 963 -22 679 -22 c 0
EndSplineSet
Substitution2: "'sups' Superscript lookup 11 subtable" threesuperior
EndChar

StartChar: threequarters
Encoding: 190 190 418
Width: 2047
VWidth: 0
Flags: HW
PickledData: "(dp1
S'org.robofab.postScriptHintData'
p2
(dp3
s."
LayerCount: 2
Fore
SplineSet
540 653 m 0
 314 653 217 719 199 932 c 1
 334 932 l 1
 342 774 408 746 547 746 c 0
 669 746 713 799 713 897 c 0
 713 1025 679 1066 469 1066 c 1
 469 1151 l 1
 685 1151 695 1200 695 1295 c 0
 695 1374 654 1421 533 1421 c 0
 408 1421 346 1408 347 1253 c 1
 212 1253 l 1
 217 1477 351 1515 532 1515 c 0
 706 1515 827 1449 827 1297 c 0
 827 1187 782 1126 664 1110 c 1
 780 1090 847 1037 847 896 c 0
 847 736 739 653 540 653 c 0
1655 0 m 1
 1655 207 l 1
 1221 207 l 1
 1221 299 l 1
 1580 892 l 1
 1721 892 l 1
 1373 298 l 1
 1655 298 l 1
 1655 533 l 1
 1768 533 l 1
 1768 298 l 1
 1912 298 l 1
 1912 207 l 1
 1768 207 l 1
 1768 0 l 1
 1655 0 l 1
687 0 m 1
 1371 1446 l 1
 1497 1446 l 1
 819 0 l 1
 687 0 l 1
EndSplineSet
Ligature2: "'frac' Diagonal Fractions lookup 12 subtable" three slash four
EndChar

StartChar: threesuperior
Encoding: 179 179 419
Width: 1050
VWidth: 0
Flags: HW
PickledData: "(dp1
S'org.robofab.postScriptHintData'
p2
(dp3
s."
LayerCount: 2
Fore
SplineSet
557 666 m 0
 354 666 221 729 215 971 c 1
 346 971 l 1
 347 797 439 774 562 774 c 0
 664 774 741 826 741 918 c 0
 741 1041 692 1089 479 1089 c 0
 477 1089 474 1089 472 1089 c 1
 472 1194 l 1
 474 1194 476 1194 478 1194 c 0
 718 1194 724 1258 724 1343 c 0
 724 1410 678 1475 555 1475 c 0
 429 1475 355 1445 355 1301 c 0
 355 1297 355 1293 355 1289 c 1
 226 1289 l 1
 226 1532 380 1584 558 1584 c 0
 710 1584 850 1503 850 1345 c 0
 850 1249 809 1173 691 1144 c 1
 811 1118 868 1051 868 925 c 0
 868 748 740 666 557 666 c 0
EndSplineSet
EndChar

StartChar: tilde
Encoding: 732 732 420
Width: 512
VWidth: 0
Flags: HW
PickledData: "(dp1
S'org.robofab.postScriptHintData'
p2
(dp3
s."
AnchorPoint: "top" 256 1060 mark 0
LayerCount: 2
Fore
SplineSet
145 1203 m 0
 25 1203 -41 1267 -41 1432 c 1
 56 1432 l 1
 56 1370 85 1339 126 1339 c 0
 197 1339 229 1446 366 1446 c 0
 486 1446 552 1382 552 1217 c 1
 455 1217 l 1
 455 1279 426 1310 385 1310 c 0
 314 1310 282 1203 145 1203 c 0
EndSplineSet
EndChar

StartChar: trademark
Encoding: 8482 8482 421
Width: 1843
VWidth: 0
Flags: HW
PickledData: "(dp1
S'org.robofab.postScriptHintData'
p2
(dp3
s."
LayerCount: 2
Fore
SplineSet
845 766 m 1
 845 1446 l 1
 1043 1446 l 1
 1227 1033 l 1
 1413 1446 l 1
 1609 1446 l 1
 1609 766 l 1
 1482 766 l 1
 1482 1329 l 1
 1310 931 l 1
 1149 931 l 1
 970 1329 l 1
 970 766 l 1
 845 766 l 1
345 766 m 1
 345 1332 l 1
 133 1332 l 1
 133 1446 l 1
 692 1446 l 1
 692 1332 l 1
 480 1332 l 1
 480 766 l 1
 345 766 l 1
EndSplineSet
EndChar

StartChar: two
Encoding: 50 50 422
Width: 1250
VWidth: 0
Flags: HW
PickledData: "(dp1
S'org.robofab.postScriptHintData'
p2
(dp3
s."
LayerCount: 2
Fore
SplineSet
231 0 m 1
 212 158 l 1
 700 689 l 2
 846 847 905 912 905 1057 c 0
 905 1242 832 1306 654 1306 c 0
 443 1306 365 1259 365 1024 c 1
 164 1024 l 1
 164 1342 347 1468 639 1468 c 0
 950 1468 1095 1289 1095 1059 c 0
 1095 834 988 735 842 581 c 2
 441 156 l 1
 1087 156 l 1
 1087 0 l 1
 231 0 l 1
EndSplineSet
Substitution2: "'sups' Superscript lookup 11 subtable" twosuperior
EndChar

StartChar: twosuperior
Encoding: 178 178 423
Width: 1050
VWidth: 0
Flags: HW
PickledData: "(dp1
S'org.robofab.postScriptHintData'
p2
(dp3
s."
LayerCount: 2
Fore
SplineSet
243 694 m 1
 232 808 l 1
 540 1066 l 1
 650 1165 691 1213 691 1319 c 0
 691 1430 633 1479 533 1479 c 0
 412 1479 344 1438 345 1270 c 1
 202 1270 l 1
 200 1498 338 1584 526 1584 c 0
 712 1584 824 1483 824 1318 c 0
 824 1165 744 1087 618 974 c 1
 405 804 l 1
 823 804 l 1
 823 694 l 1
 243 694 l 1
EndSplineSet
EndChar

StartChar: u
Encoding: 117 117 424
Width: 1222
VWidth: 0
Flags: HW
PickledData: "(dp1
S'org.robofab.postScriptHintData'
p2
(dp3
s."
AnchorPoint: "top" 622 1060 basechar 0
AnchorPoint: "ogonek" 957 0 basechar 0
LayerCount: 2
Fore
SplineSet
539 -22 m 0
 278 -22 174 122 174 290 c 2
 174 1060 l 1
 362 1060 l 1
 362 289 l 2
 362 184 445 122 576 122 c 0
 760 122 848 220 848 309 c 2
 848 1060 l 1
 1036 1060 l 1
 1036 0 l 1
 868 0 l 1
 848 133 l 1
 794 38 693 -22 539 -22 c 0
EndSplineSet
EndChar

StartChar: underscore
Encoding: 95 95 435
Width: 929
VWidth: 0
Flags: HW
PickledData: "(dp1
S'org.robofab.postScriptHintData'
p2
(dp3
s."
LayerCount: 2
Fore
SplineSet
14 -104 m 1
 14 46 l 1
 915 46 l 1
 915 -104 l 1
 14 -104 l 1
EndSplineSet
EndChar

StartChar: uni0307
Encoding: 775 775 452
Width: 412
VWidth: 0
Flags: HW
PickledData: "(dp1
S'org.robofab.postScriptHintData'
p2
(dp3
s."
AnchorPoint: "top" 218 1060 mark 0
LayerCount: 2
Fore
SplineSet
111 1327 m 1
 111 1535 l 1
 304 1535 l 1
 304 1327 l 1
 111 1327 l 1
EndSplineSet
EndChar

StartChar: uni030F
Encoding: 783 783 453
Width: 1024
VWidth: 0
Flags: HW
PickledData: "(dp1
S'org.robofab.postScriptHintData'
p2
(dp3
s."
AnchorPoint: "top" 618 1060 mark 0
LayerCount: 2
Fore
SplineSet
748 1293 m 1
 513 1674 l 1
 738 1674 l 1
 876 1293 l 1
 748 1293 l 1
338 1293 m 1
 103 1674 l 1
 328 1674 l 1
 466 1293 l 1
 338 1293 l 1
EndSplineSet
EndChar

StartChar: uni0311
Encoding: 785 785 454
Width: 512
VWidth: 0
Flags: HW
PickledData: "(dp1
S'org.robofab.postScriptHintData'
p2
(dp3
s."
AnchorPoint: "top" 267 1060 mark 0
LayerCount: 2
Fore
SplineSet
30 1256 m 1
 30 1371 117 1468 256 1468 c 0
 395 1468 482 1371 482 1256 c 1
 356 1256 l 1
 356 1316 306 1346 256 1346 c 0
 206 1346 156 1316 156 1256 c 1
 30 1256 l 1
EndSplineSet
EndChar

StartChar: uni0358
Encoding: 856 856 457
Width: 600
VWidth: 0
Flags: HW
PickledData: "(dp1
S'org.robofab.postScriptHintData'
p2
(dp3
s."
AnchorPoint: "top" 288 1060 mark 0
LayerCount: 2
Fore
SplineSet
181 1327 m 1
 181 1535 l 1
 374 1535 l 1
 374 1327 l 1
 181 1327 l 1
EndSplineSet
EndChar

StartChar: v
Encoding: 118 118 462
Width: 1104
VWidth: 0
Flags: HW
PickledData: "(dp1
S'org.robofab.postScriptHintData'
p2
(dp3
s."
LayerCount: 2
Fore
SplineSet
475 0 m 1
 64 1060 l 1
 253 1060 l 1
 572 200 l 1
 856 1060 l 1
 1040 1060 l 1
 665 0 l 1
 475 0 l 1
EndSplineSet
EndChar

StartChar: w
Encoding: 119 119 463
Width: 1614
VWidth: 0
Flags: HW
PickledData: "(dp1
S'org.robofab.postScriptHintData'
p2
(dp3
s."
AnchorPoint: "top" 812 1060 basechar 0
LayerCount: 2
Fore
SplineSet
357 0 m 1
 52 1060 l 1
 224 1060 l 1
 459 228 l 1
 714 1060 l 1
 895 1060 l 1
 1161 228 l 1
 1388 1060 l 1
 1562 1060 l 1
 1252 0 l 1
 1077 0 l 1
 806 845 l 1
 535 0 l 1
 357 0 l 1
EndSplineSet
EndChar

StartChar: x
Encoding: 120 120 468
Width: 1056
VWidth: 0
Flags: HW
PickledData: "(dp1
S'org.robofab.postScriptHintData'
p2
(dp3
s."
LayerCount: 2
Fore
SplineSet
64 0 m 1
 441 533 l 1
 70 1060 l 1
 259 1060 l 1
 535 666 l 1
 814 1060 l 1
 995 1060 l 1
 626 535 l 1
 1000 0 l 1
 817 0 l 1
 534 403 l 1
 251 0 l 1
 64 0 l 1
EndSplineSet
EndChar

StartChar: y
Encoding: 121 121 469
Width: 1118
VWidth: 0
Flags: HW
PickledData: "(dp1
S'org.robofab.postScriptHintData'
p2
(dp3
s."
AnchorPoint: "top" 585 1060 basechar 0
LayerCount: 2
Fore
SplineSet
198 -406 m 1
 198 -259 l 1
 358 -259 461 -189 513 4 c 1
 76 1060 l 1
 275 1060 l 1
 599 216 l 1
 870 1060 l 1
 1060 1060 l 1
 712 45 l 2
 601 -280 510 -406 198 -406 c 1
EndSplineSet
EndChar

StartChar: yen
Encoding: 165 165 473
Width: 1318
VWidth: 0
Flags: HW
PickledData: "(dp1
S'org.robofab.postScriptHintData'
p2
(dp3
s."
LayerCount: 2
Fore
SplineSet
1063 560 m 1
 1063 708 l 1
 842 708 l 1
 1270 1446 l 1
 1063 1446 l 1
 661 744 l 1
 261 1446 l 1
 48 1446 l 1
 478 708 l 1
 260 708 l 1
 260 560 l 1
 560 560 l 1
 560 400 l 1
 260 400 l 1
 260 252 l 1
 560 252 l 1
 560 0 l 1
 761 0 l 1
 761 252 l 1
 1063 252 l 1
 1063 400 l 1
 761 400 l 1
 761 560 l 1
 1063 560 l 1
EndSplineSet
EndChar

StartChar: z
Encoding: 122 122 477
Width: 951
VWidth: 0
Flags: HW
PickledData: "(dp1
S'org.robofab.postScriptHintData'
p2
(dp3
s."
AnchorPoint: "top" 510 1060 basechar 0
AnchorPoint: "bot" 519 0 basechar 0
LayerCount: 2
Fore
SplineSet
136 0 m 1
 136 126 l 1
 637 924 l 1
 154 924 l 1
 154 1060 l 1
 841 1060 l 1
 841 935 l 1
 334 132 l 1
 850 132 l 1
 850 0 l 1
 136 0 l 1
EndSplineSet
EndChar

StartChar: zero
Encoding: 48 48 481
Width: 1250
VWidth: 0
Flags: HW
PickledData: "(dp1
S'org.robofab.postScriptHintData'
p2
(dp3
s."
LayerCount: 2
Fore
SplineSet
634 140 m 0
 920 140 934 363 934 619 c 2
 934 816 l 2
 934 1073 918 1306 634 1306 c 0
 350 1306 334 1073 334 816 c 2
 334 619 l 2
 334 363 348 140 634 140 c 0
634 -22 m 0
 151 -22 132 335 132 636 c 2
 132 790 l 2
 132 1096 149 1468 634 1468 c 0
 1119 1468 1136 1096 1136 790 c 2
 1136 636 l 2
 1136 335 1117 -22 634 -22 c 0
EndSplineSet
EndChar
